STARTFONT 2.1
FONT -FontForge-Bitstream Vera Sans-Book-R-Normal-Sans--58-560-75-75-P-349-ISO8859-1
SIZE 56 75 75
FONTBOUNDINGBOX 86 69 -11 -14
COMMENT "Generated by fontforge, http://fontforge.sourceforge.net"
COMMENT "Copyright (c) 2003 by Bitstream, Inc. All Rights Reserved."
STARTPROPERTIES 40
FOUNDRY "FontForge"
FAMILY_NAME "Bitstream Vera Sans"
WEIGHT_NAME "Book"
SLANT "R"
SETWIDTH_NAME "Normal"
ADD_STYLE_NAME "Sans"
PIXEL_SIZE 58
POINT_SIZE 560
RESOLUTION_X 75
RESOLUTION_Y 75
SPACING "P"
AVERAGE_WIDTH 349
CHARSET_REGISTRY "ISO8859"
CHARSET_ENCODING "1"
FONTNAME_REGISTRY ""
CHARSET_COLLECTIONS "ISO8859-9 ISOLatin1Encoding"
FONT_NAME "BitstreamVeraSans-Roman"
FACE_NAME "Bitstream Vera Sans"
COPYRIGHT "Copyright (c) 2003 by Bitstream, Inc. All Rights Reserved."
FONT_VERSION "Release 1.10"
FONT_ASCENT 44
FONT_DESCENT 14
UNDERLINE_POSITION -8
UNDERLINE_THICKNESS 5
X_HEIGHT 31
CAP_HEIGHT 41
RAW_ASCENT 759
RAW_DESCENT 240
NORM_SPACE 18
RELATIVE_WEIGHT 40
RELATIVE_SETWIDTH 50
SUPERSCRIPT_X 0
SUPERSCRIPT_Y 16
SUPERSCRIPT_SIZE 34
SUBSCRIPT_X 0
SUBSCRIPT_Y -12
SUBSCRIPT_SIZE 34
FIGURE_WIDTH 37
AVG_LOWERCASE_WIDTH 332
AVG_UPPERCASE_WIDTH 388
ENDPROPERTIES
CHARS 268
STARTCHAR space
ENCODING 32
SWIDTH 317 0
DWIDTH 18 0
BBX 1 1 0 0
BITMAP
00
ENDCHAR
STARTCHAR exclam
ENCODING 33
SWIDTH 400 0
DWIDTH 23 0
BBX 6 42 9 0
BITMAP
FC
FC
FC
FC
FC
FC
FC
FC
FC
FC
FC
FC
FC
FC
FC
FC
FC
FC
FC
FC
FC
FC
FC
FC
FC
FC
FC
7C
78
00
00
00
00
00
00
FC
FC
FC
FC
FC
FC
FC
ENDCHAR
STARTCHAR quotedbl
ENCODING 34
SWIDTH 459 0
DWIDTH 27 0
BBX 16 16 5 26
BITMAP
F81F
F81F
F81F
F81F
F81F
F81F
F81F
F81F
F81F
F81F
F81F
F81F
F81F
F81F
F81F
F81F
ENDCHAR
STARTCHAR numbersign
ENCODING 35
SWIDTH 837 0
DWIDTH 49 0
BBX 40 42 4 0
BITMAP
0000F807C0
0000F807C0
0000F00780
0000F00780
0001F00F80
0001F00F80
0001E00F00
0001E00F00
0003E01F00
0003E01F00
0003E01E00
0003C01E00
1FFFFFFFFF
1FFFFFFFFF
1FFFFFFFFF
1FFFFFFFFF
000F807C00
000F807C00
000F007800
000F007800
001F00F800
001F00F800
001F00F000
001E00F000
003E01F000
003E01F000
FFFFFFFFF8
FFFFFFFFF8
FFFFFFFFF8
FFFFFFFFF8
007803C000
007803C000
00F807C000
00F807C000
00F0078000
00F0078000
01F00F8000
01F00F8000
01E00F0000
01E00F0000
03E01F0000
03E01F0000
ENDCHAR
STARTCHAR dollar
ENCODING 36
SWIDTH 636 0
DWIDTH 37 0
BBX 28 53 4 -9
BITMAP
000E0000
000E0000
000E0000
000E0000
000E0000
000E0000
000E0000
007FF000
03FFFF00
0FFFFF80
1FFFFF80
3F8E1F80
7E0E0380
7C0E0080
FC0E0000
F80E0000
F80E0000
F80E0000
F80E0000
FC0E0000
7E0E0000
7F8E0000
3FFE0000
3FFFE000
0FFFFC00
03FFFF00
007FFF80
000FFFC0
000E3FE0
000E0FE0
000E03F0
000E03F0
000E01F0
000E01F0
000E01F0
000E01F0
800E03F0
C00E03E0
F80E0FE0
FF0E3FC0
FFFFFF80
7FFFFF00
0FFFFC00
01FFE000
000E0000
000E0000
000E0000
000E0000
000E0000
000E0000
000E0000
000E0000
000E0000
ENDCHAR
STARTCHAR percent
ENCODING 37
SWIDTH 950 0
DWIDTH 55 0
BBX 49 44 3 -1
BITMAP
01F800001F0000
0FFE00003E0000
1FFF80003C0000
3FFFC0007C0000
3F0FC000780000
7E07E000F80000
7C03E001F00000
FC03F001E00000
F801F003E00000
F801F003C00000
F801F007C00000
F801F00F800000
F801F00F000000
F801F01F000000
F801F01E000000
FC03F03E000000
7C03E07C000000
7E07E07C000000
3F0FC0F8000000
3FFFC0F0000000
1FFF81F0000000
0FFE03E00FC000
01F803E03FF000
000007C0FFFC00
00000781FFFE00
00000F81F87E00
00000F03F03F00
00001F03E01F00
00003E07E01F80
00003C07C00F80
00007C07C00F80
00007807C00F80
0000F807C00F80
0001F007C00F80
0001E007C00F80
0003E007C00F80
0003C007E01F80
0007C003E01F00
000F8003F03F00
000F0001F87E00
001F0001FFFE00
001E0000FFFC00
003E00007FF800
007C00000FC000
ENDCHAR
STARTCHAR ampersand
ENCODING 38
SWIDTH 779 0
DWIDTH 45 0
BBX 40 44 3 -1
BITMAP
000FF80000
003FFF8000
00FFFFC000
01FFFFC000
01FC0FC000
03F001C000
03E0004000
07C0000000
07C0000000
07C0000000
07C0000000
07C0000000
07E0000000
03E0000000
03F0000000
01F8000000
01FC000000
01FE000000
07FF000000
0FFF800000
0FDFC0007C
1F8FE0007C
3F07F0007C
3F03F80078
7E01FC0078
7C00FE00F8
FC007F00F8
F8003F80F0
F8001FC0F0
F8000FE1F0
F80007F1E0
F80003FBE0
F80001FFC0
FC0000FFC0
7C00007F80
7E00003F00
3F00001F80
3F8000FFC0
1FC003FFE0
0FF01FFFF0
07FFFFF1F8
03FFFFC0FC
00FFFF007F
001FF80000
ENDCHAR
STARTCHAR quotesingle
ENCODING 39
SWIDTH 274 0
DWIDTH 16 0
BBX 5 16 5 26
BITMAP
F8
F8
F8
F8
F8
F8
F8
F8
F8
F8
F8
F8
F8
F8
F8
F8
ENDCHAR
STARTCHAR parenleft
ENCODING 40
SWIDTH 390 0
DWIDTH 23 0
BBX 13 52 5 -8
BITMAP
00F8
01F0
01F0
03E0
03C0
07C0
0780
0F80
0F80
1F00
1F00
1E00
3E00
3E00
3E00
7C00
7C00
7C00
7C00
F800
F800
F800
F800
F800
F800
F800
F800
F800
F800
F800
F800
F800
7800
7C00
7C00
7C00
7C00
3E00
3E00
3E00
1E00
1F00
1F00
0F80
0F80
0780
07C0
03C0
03E0
01F0
01F0
00F8
ENDCHAR
STARTCHAR parenright
ENCODING 41
SWIDTH 390 0
DWIDTH 23 0
BBX 13 52 5 -8
BITMAP
F800
7C00
7C00
3E00
3E00
1F00
1F00
0F80
0F80
07C0
07C0
03C0
03E0
03E0
03E0
01F0
01F0
01F0
01F0
00F0
00F8
00F8
00F8
00F8
00F8
00F8
00F8
00F8
00F8
00F8
00F8
00F8
01F0
01F0
01F0
01F0
01F0
03E0
03E0
03E0
03C0
07C0
07C0
0F80
0F80
0F00
1F00
1E00
3E00
7C00
7C00
F800
ENDCHAR
STARTCHAR asterisk
ENCODING 42
SWIDTH 500 0
DWIDTH 29 0
BBX 25 26 2 17
BITMAP
001C0000
001C0000
001C0000
001C0000
001C0000
401C0100
701C0700
FC1C1F80
7F1C7F00
1F9CFC00
07FFF000
01FFC000
007F0000
007F0000
01FFC000
07FFF000
1F9CFC00
3F1C7E00
FC1C1F80
701C0700
401C0100
001C0000
001C0000
001C0000
001C0000
001C0000
ENDCHAR
STARTCHAR plus
ENCODING 43
SWIDTH 837 0
DWIDTH 49 0
BBX 37 37 6 0
BITMAP
0000F80000
0000F80000
0000F80000
0000F80000
0000F80000
0000F80000
0000F80000
0000F80000
0000F80000
0000F80000
0000F80000
0000F80000
0000F80000
0000F80000
0000F80000
0000F80000
FFFFFFFFF8
FFFFFFFFF8
FFFFFFFFF8
FFFFFFFFF8
FFFFFFFFF8
0000F80000
0000F80000
0000F80000
0000F80000
0000F80000
0000F80000
0000F80000
0000F80000
0000F80000
0000F80000
0000F80000
0000F80000
0000F80000
0000F80000
0000F80000
0000F80000
ENDCHAR
STARTCHAR comma
ENCODING 44
SWIDTH 317 0
DWIDTH 18 0
BBX 7 14 5 -7
BITMAP
3E
3E
3E
3E
3E
3E
3C
7C
7C
78
78
78
F8
F0
ENDCHAR
STARTCHAR hyphen
ENCODING 45
SWIDTH 360 0
DWIDTH 21 0
BBX 15 5 3 14
BITMAP
FFFE
FFFE
FFFE
FFFE
FFFE
ENDCHAR
STARTCHAR period
ENCODING 46
SWIDTH 317 0
DWIDTH 18 0
BBX 5 7 7 0
BITMAP
F8
F8
F8
F8
F8
F8
F8
ENDCHAR
STARTCHAR slash
ENCODING 47
SWIDTH 336 0
DWIDTH 20 0
BBX 20 48 0 -6
BITMAP
0001F0
0003F0
0003E0
0003E0
0007E0
0007C0
0007C0
000FC0
000F80
000F80
000F80
001F00
001F00
001F00
003F00
003E00
003E00
007E00
007C00
007C00
00FC00
00F800
00F800
00F800
01F000
01F000
01F000
03F000
03E000
03E000
07E000
07C000
07C000
0FC000
0F8000
0F8000
0F8000
1F0000
1F0000
1F0000
3F0000
3E0000
3E0000
7E0000
7C0000
7C0000
FC0000
F80000
ENDCHAR
STARTCHAR zero
ENCODING 48
SWIDTH 636 0
DWIDTH 37 0
BBX 29 44 4 -1
BITMAP
001FC000
00FFF800
01FFFC00
07FFFF00
07F07F00
0FC01F80
1F800FC0
1F0007C0
3E0003E0
3E0003E0
7E0003F0
7C0001F0
7C0001F0
7C0001F0
7C0001F0
F80000F8
F80000F8
F80000F8
F80000F8
F80000F8
F80000F8
F80000F8
F80000F8
F80000F8
F80000F8
F80000F8
F80000F8
F80000F8
F80000F8
7C0001F0
7C0001F0
7C0001F0
7C0001F0
7E0003F0
3E0003E0
3E0003E0
1F0007C0
1F800FC0
0FC01F80
07F07F00
07FFFE00
01FFFC00
00FFF800
003FC000
ENDCHAR
STARTCHAR one
ENCODING 49
SWIDTH 636 0
DWIDTH 37 0
BBX 24 42 7 0
BITMAP
01FE00
3FFE00
FFFE00
FFFE00
FF3E00
E03E00
003E00
003E00
003E00
003E00
003E00
003E00
003E00
003E00
003E00
003E00
003E00
003E00
003E00
003E00
003E00
003E00
003E00
003E00
003E00
003E00
003E00
003E00
003E00
003E00
003E00
003E00
003E00
003E00
003E00
003E00
003E00
003E00
7FFFFF
7FFFFF
7FFFFF
7FFFFF
ENDCHAR
STARTCHAR two
ENCODING 50
SWIDTH 636 0
DWIDTH 37 0
BBX 27 43 4 0
BITMAP
00FF8000
0FFFF000
7FFFFC00
FFFFFE00
FF80FF00
FC003F80
F0000FC0
C00007C0
800007C0
000003E0
000003E0
000003E0
000003E0
000003E0
000003E0
000007E0
000007C0
00000FC0
00000F80
00001F80
00003F00
00007F00
0000FE00
0001FC00
0003F800
0007F000
000FE000
001FC000
003F8000
007F0000
00FE0000
01FC0000
03F80000
07F00000
0FE00000
1FC00000
3F800000
7F000000
FE000000
FFFFFFE0
FFFFFFE0
FFFFFFE0
FFFFFFE0
ENDCHAR
STARTCHAR three
ENCODING 51
SWIDTH 636 0
DWIDTH 37 0
BBX 28 44 4 -1
BITMAP
01FFC000
1FFFF800
7FFFFE00
7FFFFF00
7F007F80
78001FC0
40000FC0
000007E0
000003E0
000003E0
000003E0
000003E0
000003E0
000003E0
000007C0
00000FC0
00001F80
00007F00
01FFFE00
01FFF800
01FFFC00
01FFFF00
0000FF80
00001FC0
00000FC0
000007E0
000003E0
000003F0
000001F0
000001F0
000001F0
000001F0
000001F0
000001F0
000003F0
000003E0
800007E0
C0000FC0
F0001FC0
FE00FF80
FFFFFF00
FFFFFC00
3FFFF000
03FF8000
ENDCHAR
STARTCHAR four
ENCODING 52
SWIDTH 636 0
DWIDTH 37 0
BBX 31 42 3 0
BITMAP
00007F80
00007F80
0000FF80
0001FF80
0001FF80
0003EF80
0007CF80
0007CF80
000F8F80
001F0F80
003F0F80
003E0F80
007C0F80
00F80F80
00F80F80
01F00F80
03E00F80
03E00F80
07C00F80
0F800F80
0F800F80
1F000F80
3E000F80
3E000F80
7C000F80
F8000F80
F8000F80
FFFFFFFE
FFFFFFFE
FFFFFFFE
FFFFFFFE
00000F80
00000F80
00000F80
00000F80
00000F80
00000F80
00000F80
00000F80
00000F80
00000F80
00000F80
ENDCHAR
STARTCHAR five
ENCODING 53
SWIDTH 636 0
DWIDTH 37 0
BBX 27 43 4 -1
BITMAP
3FFFFF00
3FFFFF00
3FFFFF00
3FFFFF00
3E000000
3E000000
3E000000
3E000000
3E000000
3E000000
3E000000
3E000000
3E000000
3E000000
3EFF8000
3FFFE000
3FFFF800
3FFFFC00
3E01FE00
20007F00
00001F80
00000FC0
00000FC0
000007C0
000007E0
000003E0
000003E0
000003E0
000003E0
000003E0
000003E0
000003E0
000007E0
000007C0
00000FC0
80000FC0
C0001F80
F0007F00
FE01FF00
FFFFFC00
FFFFF800
3FFFE000
03FF0000
ENDCHAR
STARTCHAR six
ENCODING 54
SWIDTH 636 0
DWIDTH 37 0
BBX 29 44 4 -1
BITMAP
0007FC00
003FFF80
00FFFFC0
01FFFFC0
03F807C0
07E001C0
0FC00040
0F800000
1F000000
3E000000
3E000000
3C000000
7C000000
7C000000
781FE000
787FFC00
F9FFFE00
FBFFFF80
FFF83FC0
FFE00FC0
FFC007E0
FF8003F0
FF0001F0
FF0001F0
FF0001F8
FE0000F8
FE0000F8
FE0000F8
FE0000F8
7E0000F8
7E0000F8
7E0000F8
7E0000F8
3F0001F8
3F0001F0
3F0001F0
1F8003E0
1FC007E0
0FE00FC0
07F83FC0
03FFFF80
01FFFE00
00FFFC00
001FE000
ENDCHAR
STARTCHAR seven
ENCODING 55
SWIDTH 636 0
DWIDTH 37 0
BBX 27 42 4 0
BITMAP
FFFFFFE0
FFFFFFE0
FFFFFFE0
FFFFFFE0
000007C0
00000FC0
00000F80
00000F80
00001F80
00001F00
00003F00
00003E00
00003E00
00007E00
00007C00
0000FC00
0000F800
0000F800
0001F800
0001F000
0003F000
0003E000
0003E000
0007E000
0007C000
000FC000
000F8000
000F8000
001F8000
001F0000
001F0000
003F0000
003E0000
007E0000
007C0000
007C0000
00FC0000
00F80000
01F80000
01F00000
01F00000
03F00000
ENDCHAR
STARTCHAR eight
ENCODING 56
SWIDTH 636 0
DWIDTH 37 0
BBX 29 44 4 -1
BITMAP
003FE000
01FFFC00
07FFFF00
0FFFFF80
1FE03FC0
3F800FE0
3F0007E0
7E0003F0
7C0001F0
7C0001F0
7C0001F0
7C0001F0
7C0001F0
7C0001F0
3E0003E0
3F0007E0
1F800FC0
0FE03F80
07FFFF00
01FFFC00
03FFFE00
07FFFF00
1FE03FC0
3F800FE0
3E0003E0
7E0003F0
7C0001F0
FC0001F8
F80000F8
F80000F8
F80000F8
F80000F8
F80000F8
F80000F8
FC0001F8
7C0001F0
7E0003F0
7E0003F0
3F800FE0
1FE03FC0
0FFFFF80
07FFFF00
01FFFC00
003FE000
ENDCHAR
STARTCHAR nine
ENCODING 57
SWIDTH 636 0
DWIDTH 37 0
BBX 29 44 4 -1
BITMAP
003FC000
01FFF800
03FFFC00
0FFFFE00
1FE0FF00
1F803F80
3F001FC0
3E000FC0
7C0007E0
7C0007E0
FC0007E0
F80003F0
F80003F0
F80003F0
F80003F0
F80003F8
F80003F8
F80003F8
F80003F8
FC0007F8
7C0007F8
7C0007F8
7E000FF8
3F001FF8
1F803FF8
1FE0FFF8
0FFFFEF8
07FFFCF8
01FFF0F0
003FC1F0
000001F0
000001F0
000001E0
000003E0
000003E0
000007C0
00000F80
10001F80
1C003F00
1F00FE00
1FFFFC00
1FFFF800
0FFFE000
01FF0000
ENDCHAR
STARTCHAR colon
ENCODING 58
SWIDTH 336 0
DWIDTH 20 0
BBX 6 30 7 0
BITMAP
FC
FC
FC
FC
FC
FC
FC
00
00
00
00
00
00
00
00
00
00
00
00
00
00
00
00
FC
FC
FC
FC
FC
FC
FC
ENDCHAR
STARTCHAR semicolon
ENCODING 59
SWIDTH 336 0
DWIDTH 20 0
BBX 7 37 5 -7
BITMAP
3E
3E
3E
3E
3E
3E
3E
00
00
00
00
00
00
00
00
00
00
00
00
00
00
00
00
3E
3E
3E
3E
3E
3E
3C
7C
7C
78
78
78
F8
F0
ENDCHAR
STARTCHAR less
ENCODING 60
SWIDTH 837 0
DWIDTH 49 0
BBX 36 31 6 3
BITMAP
0000000010
00000000F0
00000007F0
0000003FF0
000000FFF0
000007FFF0
00003FFF80
0001FFFC00
0007FFE000
003FFF8000
01FFFC0000
07FFE00000
3FFF000000
FFFC000000
FFE0000000
FF00000000
FFE0000000
FFFC000000
3FFF000000
07FFE00000
01FFFC0000
003FFF8000
0007FFE000
0001FFFC00
00003FFF80
000007FFF0
000000FFF0
0000003FF0
00000007F0
00000000F0
0000000010
ENDCHAR
STARTCHAR equal
ENCODING 61
SWIDTH 837 0
DWIDTH 49 0
BBX 36 17 6 10
BITMAP
FFFFFFFFF0
FFFFFFFFF0
FFFFFFFFF0
FFFFFFFFF0
FFFFFFFFF0
0000000000
0000000000
0000000000
0000000000
0000000000
0000000000
0000000000
FFFFFFFFF0
FFFFFFFFF0
FFFFFFFFF0
FFFFFFFFF0
FFFFFFFFF0
ENDCHAR
STARTCHAR greater
ENCODING 62
SWIDTH 837 0
DWIDTH 49 0
BBX 36 31 6 3
BITMAP
8000000000
F000000000
FE00000000
FFC0000000
FFF0000000
FFFE000000
1FFFC00000
03FFF80000
007FFE0000
001FFFC000
0003FFF800
00007FFE00
00000FFFC0
000003FFF0
0000007FF0
0000000FF0
0000007FF0
000003FFF0
00000FFFC0
00007FFE00
0003FFF800
001FFFC000
007FFE0000
03FFF80000
1FFFC00000
FFFE000000
FFF0000000
FFC0000000
FE00000000
F000000000
8000000000
ENDCHAR
STARTCHAR question
ENCODING 63
SWIDTH 530 0
DWIDTH 31 0
BBX 23 43 4 0
BITMAP
01FE00
1FFFC0
7FFFF0
FFFFF8
FE03F8
F000FC
E0007C
80003E
00003E
00003E
00003E
00003E
00007E
0000FC
0000FC
0003F8
0007F8
000FF0
001FE0
003FC0
007F80
00FE00
00FC00
01F800
01F800
01F000
01F000
01F000
01F000
01F000
01F000
01F000
000000
000000
000000
000000
01F800
01F800
01F800
01F800
01F800
01F800
01F800
ENDCHAR
STARTCHAR at
ENCODING 64
SWIDTH 1000 0
DWIDTH 58 0
BBX 50 51 4 -10
BITMAP
000007FE000000
00007FFFE00000
0003FFFFF80000
0007FFFFFE0000
001FF801FF8000
003FC0003FC000
00FE00000FE000
01FC000003F000
03F0000001F800
03E0000000FC00
07C00000007C00
0F800000003E00
1F000000001F00
1F0007F0000F00
3E003FFC780F80
3C007FFE780780
3C00FFFF780780
7801FC0FF80780
7801F003F803C0
7803E001F803C0
F803C000F803C0
F007C000F803C0
F00780007803C0
F00780007803C0
F00780007803C0
F00780007803C0
F0078000780780
F0078000780780
F0078000780780
F007C000F80F00
F803C000F81F00
7803E001F83E00
7801F003F87C00
7801FC0FF9FC00
7C00FFFF7FF000
3C007FFE7FE000
3E003FFC7F8000
1E000FF0780000
1F000000000000
0F800000000000
07C00000000000
07E00000000000
03F00000020000
01F80000070000
00FE00001F8000
007F80007F8000
001FF803FF0000
000FFFFFFC0000
0003FFFFF00000
00007FFFC00000
00000FFC000000
ENDCHAR
STARTCHAR A
ENCODING 65
SWIDTH 684 0
DWIDTH 40 0
BBX 39 42 0 0
BITMAP
0000FE0000
0000FE0000
0001FF0000
0001FF0000
0003FF8000
0003EF8000
0003EF8000
0007EFC000
0007C7C000
0007C7C000
000FC7E000
000F83E000
001F83F000
001F01F000
001F01F000
003F01F800
003E00F800
007E00FC00
007C007C00
007C007C00
00FC007E00
00F8003E00
00F8003E00
01F8003F00
01F0001F00
03F0001F80
03FFFFFF80
03FFFFFF80
07FFFFFFC0
07FFFFFFC0
0FC00007E0
0F800003E0
0F800003E0
1F800003F0
1F000001F0
3F000001F0
3F000000F8
3E000000F8
7E000000FC
7C0000007C
7C0000007C
FC0000007E
ENDCHAR
STARTCHAR B
ENCODING 66
SWIDTH 686 0
DWIDTH 40 0
BBX 30 42 5 0
BITMAP
FFFFF000
FFFFFE00
FFFFFF00
FFFFFFC0
F8003FC0
F80007E0
F80003E0
F80003F0
F80001F0
F80001F0
F80001F0
F80001F0
F80001F0
F80003F0
F80003E0
F80007E0
F8003FC0
FFFFFF80
FFFFFC00
FFFFFF00
FFFFFFC0
F8001FE0
F80003F0
F80001F0
F80000F8
F80000F8
F800007C
F800007C
F800007C
F800007C
F800007C
F800007C
F800007C
F80000FC
F80000F8
F80001F8
F80003F0
F8001FF0
FFFFFFE0
FFFFFF80
FFFFFF00
FFFFF000
ENDCHAR
STARTCHAR C
ENCODING 67
SWIDTH 698 0
DWIDTH 41 0
BBX 34 44 3 -1
BITMAP
0001FFC000
000FFFF800
003FFFFE00
00FFFFFF80
01FF007FC0
03F8000FC0
07E00003C0
0FC00001C0
1F800000C0
1F00000040
3F00000000
3E00000000
7E00000000
7C00000000
7C00000000
7C00000000
F800000000
F800000000
F800000000
F800000000
F800000000
F800000000
F800000000
F800000000
F800000000
F800000000
F800000000
F800000000
7C00000000
7C00000000
7C00000000
7E00000000
3E00000000
3F00000000
1F00000040
1F800000C0
0FC00001C0
07E00003C0
03F8000FC0
01FF007FC0
00FFFFFF80
003FFFFE00
000FFFF800
0001FFC000
ENDCHAR
STARTCHAR D
ENCODING 68
SWIDTH 770 0
DWIDTH 45 0
BBX 36 42 5 0
BITMAP
FFFFE00000
FFFFFE0000
FFFFFFC000
FFFFFFF000
F8003FF800
F80003FE00
F80000FF00
F800003F00
F800001F80
F800000FC0
F8000007C0
F8000007C0
F8000003E0
F8000003E0
F8000003E0
F8000003F0
F8000001F0
F8000001F0
F8000001F0
F8000001F0
F8000001F0
F8000001F0
F8000001F0
F8000001F0
F8000001F0
F8000001F0
F8000003F0
F8000003E0
F8000003E0
F8000003E0
F8000007C0
F8000007C0
F800000FC0
F800001F80
F800003F00
F80000FF00
F80003FC00
F8001FF800
FFFFFFF000
FFFFFFC000
FFFFFE0000
FFFFE00000
ENDCHAR
STARTCHAR E
ENCODING 69
SWIDTH 631 0
DWIDTH 37 0
BBX 27 42 5 0
BITMAP
FFFFFFC0
FFFFFFC0
FFFFFFC0
FFFFFFC0
F8000000
F8000000
F8000000
F8000000
F8000000
F8000000
F8000000
F8000000
F8000000
F8000000
F8000000
F8000000
F8000000
FFFFFFC0
FFFFFFC0
FFFFFFC0
FFFFFFC0
F8000000
F8000000
F8000000
F8000000
F8000000
F8000000
F8000000
F8000000
F8000000
F8000000
F8000000
F8000000
F8000000
F8000000
F8000000
F8000000
F8000000
FFFFFFE0
FFFFFFE0
FFFFFFE0
FFFFFFE0
ENDCHAR
STARTCHAR F
ENCODING 70
SWIDTH 575 0
DWIDTH 33 0
BBX 24 42 5 0
BITMAP
FFFFFF
FFFFFF
FFFFFF
FFFFFF
F80000
F80000
F80000
F80000
F80000
F80000
F80000
F80000
F80000
F80000
F80000
F80000
F80000
FFFFFC
FFFFFC
FFFFFC
FFFFFC
F80000
F80000
F80000
F80000
F80000
F80000
F80000
F80000
F80000
F80000
F80000
F80000
F80000
F80000
F80000
F80000
F80000
F80000
F80000
F80000
F80000
ENDCHAR
STARTCHAR G
ENCODING 71
SWIDTH 774 0
DWIDTH 45 0
BBX 37 44 3 -1
BITMAP
0000FFE000
000FFFFE00
003FFFFF80
00FFFFFFE0
01FF003FF0
03F80007F0
07E00001F0
0FC0000070
1F80000030
1F00000010
3F00000000
3E00000000
7E00000000
7C00000000
7C00000000
7C00000000
F800000000
F800000000
F800000000
F800000000
F800000000
F800000000
F80001FFF8
F80001FFF8
F80001FFF8
F80001FFF8
F8000000F8
F8000000F8
7C000000F8
7C000000F8
7C000000F8
7E000000F8
3E000000F8
3F000000F8
1F000000F8
1F800000F8
0FC00000F8
07F00000F8
03F80003F8
01FF801FF8
00FFFFFFF0
003FFFFFC0
000FFFFE00
0000FFE000
ENDCHAR
STARTCHAR H
ENCODING 72
SWIDTH 751 0
DWIDTH 44 0
BBX 32 42 5 0
BITMAP
F800001F
F800001F
F800001F
F800001F
F800001F
F800001F
F800001F
F800001F
F800001F
F800001F
F800001F
F800001F
F800001F
F800001F
F800001F
F800001F
F800001F
FFFFFFFF
FFFFFFFF
FFFFFFFF
FFFFFFFF
F800001F
F800001F
F800001F
F800001F
F800001F
F800001F
F800001F
F800001F
F800001F
F800001F
F800001F
F800001F
F800001F
F800001F
F800001F
F800001F
F800001F
F800001F
F800001F
F800001F
F800001F
ENDCHAR
STARTCHAR I
ENCODING 73
SWIDTH 294 0
DWIDTH 17 0
BBX 5 42 5 0
BITMAP
F8
F8
F8
F8
F8
F8
F8
F8
F8
F8
F8
F8
F8
F8
F8
F8
F8
F8
F8
F8
F8
F8
F8
F8
F8
F8
F8
F8
F8
F8
F8
F8
F8
F8
F8
F8
F8
F8
F8
F8
F8
F8
ENDCHAR
STARTCHAR J
ENCODING 74
SWIDTH 294 0
DWIDTH 17 0
BBX 14 54 -4 -12
BITMAP
007C
007C
007C
007C
007C
007C
007C
007C
007C
007C
007C
007C
007C
007C
007C
007C
007C
007C
007C
007C
007C
007C
007C
007C
007C
007C
007C
007C
007C
007C
007C
007C
007C
007C
007C
007C
007C
007C
007C
007C
007C
007C
007C
007C
007C
00FC
00F8
00F8
01F8
07F0
FFE0
FFC0
FF80
FC00
ENDCHAR
STARTCHAR K
ENCODING 75
SWIDTH 655 0
DWIDTH 38 0
BBX 33 42 5 0
BITMAP
F80000FE00
F80001FC00
F80003F800
F80007F000
F8000FE000
F8001FC000
F8007F8000
F800FF0000
F801FE0000
F803FC0000
F807F00000
F80FE00000
F81FC00000
F83F800000
F87F000000
F8FE000000
FBFC000000
FFF8000000
FFF0000000
FFE0000000
FFE0000000
FFF8000000
FBFC000000
F9FE000000
F8FF000000
F87F800000
F83FC00000
F80FE00000
F807F00000
F803F80000
F801FC0000
F800FE0000
F8007F0000
F8003F8000
F8001FC000
F8000FE000
F80007F000
F80003F800
F80001FC00
F80000FE00
F800007F00
F800003F80
ENDCHAR
STARTCHAR L
ENCODING 76
SWIDTH 557 0
DWIDTH 32 0
BBX 26 42 5 0
BITMAP
F8000000
F8000000
F8000000
F8000000
F8000000
F8000000
F8000000
F8000000
F8000000
F8000000
F8000000
F8000000
F8000000
F8000000
F8000000
F8000000
F8000000
F8000000
F8000000
F8000000
F8000000
F8000000
F8000000
F8000000
F8000000
F8000000
F8000000
F8000000
F8000000
F8000000
F8000000
F8000000
F8000000
F8000000
F8000000
F8000000
F8000000
F8000000
FFFFFFC0
FFFFFFC0
FFFFFFC0
FFFFFFC0
ENDCHAR
STARTCHAR M
ENCODING 77
SWIDTH 862 0
DWIDTH 50 0
BBX 39 42 5 0
BITMAP
FF800003FE
FF800003FE
FF800003FE
FFC00007FE
FFC00007FE
FFE0000FFE
FBE0000FBE
FBE0000FBE
FBF0001FBE
F9F0001F3E
F9F8003F3E
F8F8003E3E
F8F8003E3E
F8FC007E3E
F87C007C3E
F87E00FC3E
F83E00F83E
F83E00F83E
F83F01F83E
F81F01F03E
F81F83F03E
F81F83F03E
F80F83E03E
F80FC7E03E
F807C7C03E
F807CFC03E
F807EFC03E
F803EF803E
F803FF803E
F801FF003E
F801FF003E
F801FF003E
F800FE003E
F800FE003E
F80000003E
F80000003E
F80000003E
F80000003E
F80000003E
F80000003E
F80000003E
F80000003E
ENDCHAR
STARTCHAR N
ENCODING 78
SWIDTH 748 0
DWIDTH 43 0
BBX 32 42 5 0
BITMAP
FF00001F
FF00001F
FF80001F
FF80001F
FFC0001F
FFC0001F
FFE0001F
FBE0001F
FBF0001F
F9F8001F
F9F8001F
F8FC001F
F8FC001F
F87E001F
F83E001F
F83F001F
F81F001F
F81F801F
F80F801F
F80FC01F
F807E01F
F807E01F
F803F01F
F801F01F
F801F81F
F800F81F
F800FC1F
F8007C1F
F8007E1F
F8003F1F
F8003F1F
F8001F9F
F8001F9F
F8000FDF
F80007DF
F80007FF
F80003FF
F80003FF
F80001FF
F80001FF
F80000FF
F80000FF
ENDCHAR
STARTCHAR O
ENCODING 79
SWIDTH 787 0
DWIDTH 46 0
BBX 39 44 3 -1
BITMAP
0001FF0000
000FFFF000
003FFFF800
00FFFFFE00
01FF01FF00
03F8003F80
07E0000FC0
0FC00007E0
1F800003F0
1F000001F0
3F000001F8
3E000000F8
7E000000F8
7C0000007C
7C0000007C
7C0000007C
F80000007E
F80000003E
F80000003E
F80000003E
F80000003E
F80000003E
F80000003E
F80000003E
F80000003E
F80000003E
F80000003E
F80000007E
7C0000007C
7C0000007C
7C0000007C
7E000000FC
3E000000F8
3F000001F8
1F000001F0
1F800003F0
0FC00007E0
07E0000FC0
03F8003F80
01FF01FF00
00FFFFFE00
007FFFF800
001FFFF000
0001FF0000
ENDCHAR
STARTCHAR P
ENCODING 80
SWIDTH 603 0
DWIDTH 35 0
BBX 27 42 5 0
BITMAP
FFFFC000
FFFFF800
FFFFFE00
FFFFFF00
F800FF80
F8001F80
F8000FC0
F80007C0
F80007E0
F80003E0
F80003E0
F80003E0
F80003E0
F80003E0
F80003E0
F80003E0
F80007E0
F80007C0
F8000FC0
F8001F80
F8007F80
FFFFFF00
FFFFFE00
FFFFF800
FFFFC000
F8000000
F8000000
F8000000
F8000000
F8000000
F8000000
F8000000
F8000000
F8000000
F8000000
F8000000
F8000000
F8000000
F8000000
F8000000
F8000000
F8000000
ENDCHAR
STARTCHAR Q
ENCODING 81
SWIDTH 787 0
DWIDTH 46 0
BBX 39 50 3 -7
BITMAP
0001FF0000
000FFFF000
003FFFF800
00FFFFFE00
01FF01FF00
03F8003F80
07E0000FC0
0FC00007E0
1F800003F0
1F000001F0
3F000001F8
3E000000F8
7E000000F8
7C0000007C
7C0000007C
7C0000007C
F80000007E
F80000003E
F80000003E
F80000003E
F80000003E
F80000003E
F80000003E
F80000003E
F80000003E
F80000003E
F80000003E
F80000007E
7C0000007C
7C0000007C
7C0000007C
7E000000FC
3E000000F8
3F000001F8
1F000001F0
1F800003F0
0FC00007E0
07E0000FC0
03F8003FC0
01FF01FF80
00FFFFFF00
003FFFFC00
000FFFF000
0001FFF800
000001FC00
000000FE00
0000007F00
0000003F80
0000001FC0
0000000FE0
ENDCHAR
STARTCHAR R
ENCODING 82
SWIDTH 694 0
DWIDTH 40 0
BBX 33 42 5 0
BITMAP
FFFFC00000
FFFFF80000
FFFFFE0000
FFFFFF0000
F8007F8000
F8001FC000
F8000FC000
F80007C000
F80007E000
F80003E000
F80003E000
F80003E000
F80003E000
F80003E000
F80003E000
F80007E000
F80007C000
F8000FC000
F8001FC000
F8007F8000
FFFFFF0000
FFFFFE0000
FFFFF80000
FFFFFC0000
F801FE0000
F8003F0000
F8001F8000
F8001F8000
F8000FC000
F80007C000
F80007E000
F80003E000
F80003F000
F80001F800
F80001F800
F80000FC00
F80000FC00
F800007E00
F800007E00
F800003F00
F800001F00
F800001F80
ENDCHAR
STARTCHAR S
ENCODING 83
SWIDTH 634 0
DWIDTH 37 0
BBX 30 44 4 -1
BITMAP
003FF800
01FFFF80
07FFFFE0
0FFFFFE0
1FE01FE0
3F0003E0
7E0000E0
7C000020
FC000000
F8000000
F8000000
F8000000
F8000000
F8000000
FC000000
FE000000
7F800000
7FF80000
3FFFC000
1FFFFC00
0FFFFF00
03FFFFC0
00FFFFE0
000FFFF0
00007FF0
00000FF8
000003F8
000001FC
000000FC
0000007C
0000007C
0000007C
0000007C
0000007C
0000007C
800000F8
C00000F8
F00001F8
FE0007F0
FFC01FE0
FFFFFFC0
7FFFFF80
0FFFFE00
00FFF000
ENDCHAR
STARTCHAR T
ENCODING 84
SWIDTH 610 0
DWIDTH 35 0
BBX 35 42 0 0
BITMAP
FFFFFFFFE0
FFFFFFFFE0
FFFFFFFFE0
FFFFFFFFE0
0001F00000
0001F00000
0001F00000
0001F00000
0001F00000
0001F00000
0001F00000
0001F00000
0001F00000
0001F00000
0001F00000
0001F00000
0001F00000
0001F00000
0001F00000
0001F00000
0001F00000
0001F00000
0001F00000
0001F00000
0001F00000
0001F00000
0001F00000
0001F00000
0001F00000
0001F00000
0001F00000
0001F00000
0001F00000
0001F00000
0001F00000
0001F00000
0001F00000
0001F00000
0001F00000
0001F00000
0001F00000
0001F00000
ENDCHAR
STARTCHAR U
ENCODING 85
SWIDTH 731 0
DWIDTH 42 0
BBX 32 43 6 -1
BITMAP
F800001F
F800001F
F800001F
F800001F
F800001F
F800001F
F800001F
F800001F
F800001F
F800001F
F800001F
F800001F
F800001F
F800001F
F800001F
F800001F
F800001F
F800001F
F800001F
F800001F
F800001F
F800001F
F800001F
F800001F
F800001F
F800001F
F800001F
F800001F
F800001F
F800001F
F800001F
FC00003F
7C00003E
7C00003E
7E00007E
3E00007C
3F0000FC
1F8001F8
0FF00FF0
07FFFFE0
03FFFFC0
00FFFF00
001FF800
ENDCHAR
STARTCHAR V
ENCODING 86
SWIDTH 684 0
DWIDTH 40 0
BBX 39 42 0 0
BITMAP
FC0000007E
7C0000007C
7C0000007C
7E000000FC
3E000000F8
3E000000F8
1F000001F8
1F000001F0
1F800003F0
0F800003E0
0F800003E0
0FC00007E0
07C00007C0
07E0000FC0
03E0000F80
03E0000F80
03F0001F80
01F0001F00
01F8003F00
00F8003E00
00F8003E00
00FC007E00
007C007C00
007C007C00
007E00FC00
003E00F800
003F01F800
001F01F000
001F01F000
001F83F000
000F83E000
000FC7E000
0007C7C000
0007C7C000
0007EFC000
0003EF8000
0003EF8000
0001FF8000
0001FF0000
0001FF0000
0000FE0000
0000FE0000
ENDCHAR
STARTCHAR W
ENCODING 87
SWIDTH 988 0
DWIDTH 57 0
BBX 54 42 2 0
BITMAP
F80001FE00007C
FC0001FE0000FC
7C0001FE0000F8
7C0003FF0000F8
7C0003FF0000F8
7E0003FF0001F8
3E0003FF0001F0
3E0007EF8001F0
3E0007CF8001F0
3F0007CF8003F0
1F0007CF8003E0
1F000FCFC003E0
1F000F87C003E0
1F800F87C007E0
0F800F87C007C0
0F801F87E007C0
0F801F03E007C0
0FC01F03E00FC0
07C01F03E00F80
07C03F03F00F80
07C03E01F00F80
07E03E01F01F80
03E03E01F01F00
03E07E01F81F00
03E07C00F81F00
03F07C00F83F00
01F07C00F83E00
01F0FC00FC3E00
01F0F8007C3E00
00F8F8007C7C00
00F8F8007C7C00
00F9F8007E7C00
00F9F0003E7C00
007DF0003EF800
007DF0003EF800
007FF0003FF800
007FE0001FF800
003FE0001FF000
003FE0001FF000
003FE0001FF000
003FC0000FF000
001FC0000FE000
ENDCHAR
STARTCHAR X
ENCODING 88
SWIDTH 685 0
DWIDTH 40 0
BBX 36 42 2 0
BITMAP
3F000007E0
1F80000FC0
0FC0001F80
0FC0001F80
07E0003F00
03F0007E00
03F0007E00
01F800FC00
00FC01F800
00FC01F800
007E03F000
003F07E000
003F07E000
001F8FC000
000FDF8000
000FDF8000
0007FF0000
0003FE0000
0003FE0000
0001FC0000
0003FC0000
0003FC0000
0007FE0000
000FFF0000
000FFF0000
001F9F8000
003F0FC000
003F0FC000
007E07E000
00FC03F000
00FC03F000
01F801F800
03F000FC00
03F000FC00
07E0007E00
0FC0003F00
0FC0003F00
1F80001F80
3F00000FC0
3F00000FC0
7E000007E0
FC000003F0
ENDCHAR
STARTCHAR Y
ENCODING 89
SWIDTH 610 0
DWIDTH 35 0
BBX 35 42 0 0
BITMAP
FC000007E0
7E00000FC0
3F00001F80
3F00001F80
1F80003F00
0FC0007E00
0FC0007E00
07E000FC00
03F001F800
03F803F800
01F803F000
00FC07E000
007E0FC000
007E0FC000
003F1F8000
001FBF0000
001FBF0000
000FFE0000
0007FC0000
0007FC0000
0003F80000
0001F00000
0001F00000
0001F00000
0001F00000
0001F00000
0001F00000
0001F00000
0001F00000
0001F00000
0001F00000
0001F00000
0001F00000
0001F00000
0001F00000
0001F00000
0001F00000
0001F00000
0001F00000
0001F00000
0001F00000
0001F00000
ENDCHAR
STARTCHAR Z
ENCODING 90
SWIDTH 685 0
DWIDTH 40 0
BBX 35 42 3 0
BITMAP
7FFFFFFFC0
7FFFFFFFC0
7FFFFFFFC0
7FFFFFFFC0
0000000FC0
0000001F80
0000003F00
0000007E00
000000FE00
000001FC00
000001F800
000003F000
000007E000
00000FC000
00001FC000
00003F8000
00003F0000
00007E0000
0000FC0000
0001FC0000
0003F80000
0007F00000
0007E00000
000FC00000
001F800000
003F800000
007F000000
00FE000000
00FC000000
01F8000000
03F0000000
07F0000000
0FE0000000
1FC0000000
1F80000000
3F00000000
7E00000000
FE00000000
FFFFFFFFE0
FFFFFFFFE0
FFFFFFFFE0
FFFFFFFFE0
ENDCHAR
STARTCHAR bracketleft
ENCODING 91
SWIDTH 390 0
DWIDTH 23 0
BBX 12 52 5 -8
BITMAP
FFF0
FFF0
FFF0
FFF0
F800
F800
F800
F800
F800
F800
F800
F800
F800
F800
F800
F800
F800
F800
F800
F800
F800
F800
F800
F800
F800
F800
F800
F800
F800
F800
F800
F800
F800
F800
F800
F800
F800
F800
F800
F800
F800
F800
F800
F800
F800
F800
F800
F800
FFF0
FFF0
FFF0
FFF0
ENDCHAR
STARTCHAR backslash
ENCODING 92
SWIDTH 336 0
DWIDTH 20 0
BBX 20 48 0 -6
BITMAP
F80000
FC0000
7C0000
7C0000
7E0000
3E0000
3E0000
3F0000
1F0000
1F0000
1F0000
0F8000
0F8000
0F8000
0FC000
07C000
07C000
07E000
03E000
03E000
03F000
01F000
01F000
01F000
00F800
00F800
00F800
00FC00
007C00
007C00
007E00
003E00
003E00
003F00
001F00
001F00
001F00
000F80
000F80
000F80
000FC0
0007C0
0007C0
0007E0
0003E0
0003E0
0003F0
0001F0
ENDCHAR
STARTCHAR bracketright
ENCODING 93
SWIDTH 390 0
DWIDTH 23 0
BBX 12 52 5 -8
BITMAP
FFF0
FFF0
FFF0
FFF0
01F0
01F0
01F0
01F0
01F0
01F0
01F0
01F0
01F0
01F0
01F0
01F0
01F0
01F0
01F0
01F0
01F0
01F0
01F0
01F0
01F0
01F0
01F0
01F0
01F0
01F0
01F0
01F0
01F0
01F0
01F0
01F0
01F0
01F0
01F0
01F0
01F0
01F0
01F0
01F0
01F0
01F0
01F0
01F0
FFF0
FFF0
FFF0
FFF0
ENDCHAR
STARTCHAR asciicircum
ENCODING 94
SWIDTH 837 0
DWIDTH 49 0
BBX 36 16 6 26
BITMAP
0001F80000
0003FC0000
0007FE0000
000FFF0000
001FFF8000
003F9FC000
007F0FE000
00FE07F000
01FC03F800
03F801FC00
07F000FE00
0FE0007F00
1F80001F80
3F00000FC0
7E000007E0
FC000003F0
ENDCHAR
STARTCHAR underscore
ENCODING 95
SWIDTH 500 0
DWIDTH 29 0
BBX 31 4 -1 -14
BITMAP
FFFFFFFE
FFFFFFFE
FFFFFFFE
FFFFFFFE
ENDCHAR
STARTCHAR grave
ENCODING 96
SWIDTH 500 0
DWIDTH 29 0
BBX 14 11 4 35
BITMAP
FC00
7E00
3F00
1F00
0F80
07C0
03E0
03E0
01F0
00F8
007C
ENDCHAR
STARTCHAR a
ENCODING 97
SWIDTH 612 0
DWIDTH 36 0
BBX 27 34 3 -1
BITMAP
00FFC000
0FFFF800
3FFFFC00
3FFFFE00
3F00FF00
38001F80
20000F80
000007C0
000007C0
000003C0
000003E0
000003E0
000003E0
007FFFE0
03FFFFE0
0FFFFFE0
1FFFFFE0
3FE003E0
7F0003E0
7C0003E0
FC0003E0
F80003E0
F80007E0
F80007E0
F80007E0
F8000FE0
FC001FE0
7C001FE0
7E007FE0
7F81FBE0
3FFFF3E0
1FFFE3E0
07FFC3E0
01FE0000
ENDCHAR
STARTCHAR b
ENCODING 98
SWIDTH 634 0
DWIDTH 37 0
BBX 28 45 5 -1
BITMAP
F8000000
F8000000
F8000000
F8000000
F8000000
F8000000
F8000000
F8000000
F8000000
F8000000
F8000000
F81FE000
F87FF800
F8FFFC00
F9FFFE00
FBE07F00
FF801F80
FF000FC0
FE0007C0
FE0007E0
FC0003E0
FC0003E0
FC0003E0
F80001F0
F80001F0
F80001F0
F80001F0
F80001F0
F80001F0
F80001F0
F80001F0
F80001F0
F80001F0
FC0003E0
FC0003E0
FC0003E0
FE0007E0
FE0007C0
FF000FC0
FF801F80
FBE07F00
F9FFFE00
F8FFFC00
F87FF800
001FE000
ENDCHAR
STARTCHAR c
ENCODING 99
SWIDTH 549 0
DWIDTH 32 0
BBX 25 34 3 -1
BITMAP
001FFC00
00FFFF80
01FFFF80
07FFFF80
0FF00F80
1FC00080
1F800000
3F000000
3E000000
7C000000
7C000000
7C000000
F8000000
F8000000
F8000000
F8000000
F8000000
F8000000
F8000000
F8000000
F8000000
F8000000
7C000000
7C000000
7C000000
3E000000
3F000000
1F800000
1FC00080
0FF00F80
07FFFF80
01FFFF80
00FFFF80
001FFC00
ENDCHAR
STARTCHAR d
ENCODING 100
SWIDTH 634 0
DWIDTH 37 0
BBX 28 45 3 -1
BITMAP
000001F0
000001F0
000001F0
000001F0
000001F0
000001F0
000001F0
000001F0
000001F0
000001F0
000001F0
007F81F0
01FFE1F0
03FFF1F0
07FFF9F0
0FE07DF0
1F801FF0
3F000FF0
3E0007F0
7E0007F0
7C0003F0
7C0003F0
7C0003F0
F80001F0
F80001F0
F80001F0
F80001F0
F80001F0
F80001F0
F80001F0
F80001F0
F80001F0
F80001F0
7C0003F0
7C0003F0
7C0003F0
7E0007F0
3E0007F0
3F000FF0
1F801FF0
0FE07DF0
07FFF9F0
03FFF1F0
01FFE1F0
007F8000
ENDCHAR
STARTCHAR e
ENCODING 101
SWIDTH 615 0
DWIDTH 36 0
BBX 29 34 3 -1
BITMAP
001FE000
00FFFC00
01FFFF00
07FFFF80
0FF03FC0
1FC00FC0
1F0007E0
3E0003E0
3E0001F0
7C0001F0
7C0001F0
7C0000F8
F80000F8
F80000F8
FFFFFFF8
FFFFFFF8
FFFFFFF8
FFFFFFF8
F8000000
F8000000
F8000000
F8000000
7C000000
7C000000
7E000000
3E000000
3F000000
1F800010
1FC00070
0FF807F0
07FFFFF0
01FFFFF0
007FFFE0
000FFC00
ENDCHAR
STARTCHAR f
ENCODING 102
SWIDTH 352 0
DWIDTH 20 0
BBX 20 44 1 0
BITMAP
001FF0
007FF0
01FFF0
03FFF0
03F000
03E000
07C000
07C000
07C000
07C000
07C000
07C000
FFFFE0
FFFFE0
FFFFE0
FFFFE0
07C000
07C000
07C000
07C000
07C000
07C000
07C000
07C000
07C000
07C000
07C000
07C000
07C000
07C000
07C000
07C000
07C000
07C000
07C000
07C000
07C000
07C000
07C000
07C000
07C000
07C000
07C000
07C000
ENDCHAR
STARTCHAR g
ENCODING 103
SWIDTH 634 0
DWIDTH 37 0
BBX 28 45 3 -12
BITMAP
007F8000
01FFE1F0
07FFF1F0
0FFFF9F0
0FE07DF0
1F801FF0
3F000FF0
3E0007F0
7E0007F0
7C0003F0
7C0003F0
FC0003F0
F80001F0
F80001F0
F80001F0
F80001F0
F80001F0
F80001F0
F80001F0
F80001F0
F80001F0
FC0003F0
7C0003F0
7C0003F0
7E0007F0
3E0007F0
3F000FF0
1F801FF0
0FE07DF0
0FFFF9F0
07FFF1F0
01FFE1F0
007F81F0
000001F0
000003F0
000003E0
000003E0
000007E0
00000FC0
08001FC0
0F007F80
0FFFFF00
0FFFFE00
0FFFF800
03FFE000
ENDCHAR
STARTCHAR h
ENCODING 104
SWIDTH 633 0
DWIDTH 37 0
BBX 27 44 5 0
BITMAP
F8000000
F8000000
F8000000
F8000000
F8000000
F8000000
F8000000
F8000000
F8000000
F8000000
F8000000
F80FE000
F83FFC00
F8FFFE00
F9FFFF00
FBE07F80
FF801F80
FF000FC0
FE0007C0
FC0007C0
FC0003E0
FC0003E0
F80003E0
F80003E0
F80003E0
F80003E0
F80003E0
F80003E0
F80003E0
F80003E0
F80003E0
F80003E0
F80003E0
F80003E0
F80003E0
F80003E0
F80003E0
F80003E0
F80003E0
F80003E0
F80003E0
F80003E0
F80003E0
F80003E0
ENDCHAR
STARTCHAR i
ENCODING 105
SWIDTH 277 0
DWIDTH 16 0
BBX 5 44 5 0
BITMAP
F8
F8
F8
F8
F8
F8
F8
00
00
00
00
00
F8
F8
F8
F8
F8
F8
F8
F8
F8
F8
F8
F8
F8
F8
F8
F8
F8
F8
F8
F8
F8
F8
F8
F8
F8
F8
F8
F8
F8
F8
F8
F8
ENDCHAR
STARTCHAR j
ENCODING 106
SWIDTH 277 0
DWIDTH 16 0
BBX 11 56 -1 -12
BITMAP
03E0
03E0
03E0
03E0
03E0
03E0
03E0
0000
0000
0000
0000
0000
03E0
03E0
03E0
03E0
03E0
03E0
03E0
03E0
03E0
03E0
03E0
03E0
03E0
03E0
03E0
03E0
03E0
03E0
03E0
03E0
03E0
03E0
03E0
03E0
03E0
03E0
03E0
03E0
03E0
03E0
03E0
03E0
03E0
03E0
03E0
03E0
03E0
07E0
07C0
0FC0
FF80
FF80
FF00
F800
ENDCHAR
STARTCHAR k
ENCODING 107
SWIDTH 579 0
DWIDTH 34 0
BBX 27 44 5 0
BITMAP
F8000000
F8000000
F8000000
F8000000
F8000000
F8000000
F8000000
F8000000
F8000000
F8000000
F8000000
F8000000
F8001FC0
F8003F80
F8007F00
F800FE00
F803FC00
F807F800
F80FF000
F81FE000
F83FC000
F87F0000
F8FE0000
F9FC0000
FBF80000
FFF00000
FFE00000
FFE00000
FFF00000
FBF80000
F9FC0000
F8FE0000
F87F0000
F83F8000
F81FC000
F80FE000
F807F000
F803F800
F801FC00
F800FE00
F8007F00
F8003F80
F8001FC0
F8000FE0
ENDCHAR
STARTCHAR l
ENCODING 108
SWIDTH 277 0
DWIDTH 16 0
BBX 5 44 5 0
BITMAP
F8
F8
F8
F8
F8
F8
F8
F8
F8
F8
F8
F8
F8
F8
F8
F8
F8
F8
F8
F8
F8
F8
F8
F8
F8
F8
F8
F8
F8
F8
F8
F8
F8
F8
F8
F8
F8
F8
F8
F8
F8
F8
F8
F8
ENDCHAR
STARTCHAR m
ENCODING 109
SWIDTH 974 0
DWIDTH 57 0
BBX 47 33 5 0
BITMAP
000FE0007F00
F87FF803FFC0
F8FFFC07FFE0
F9FFFE0FFFF0
FBE07F1F03F8
FF803F3C01F8
FF001FB800FC
FE000FF0007C
FC000FE0007C
FC0007E0003E
FC0007E0003E
F80007C0003E
F80007C0003E
F80007C0003E
F80007C0003E
F80007C0003E
F80007C0003E
F80007C0003E
F80007C0003E
F80007C0003E
F80007C0003E
F80007C0003E
F80007C0003E
F80007C0003E
F80007C0003E
F80007C0003E
F80007C0003E
F80007C0003E
F80007C0003E
F80007C0003E
F80007C0003E
F80007C0003E
F80007C0003E
ENDCHAR
STARTCHAR n
ENCODING 110
SWIDTH 633 0
DWIDTH 37 0
BBX 27 33 5 0
BITMAP
000FE000
F83FFC00
F8FFFE00
F9FFFF00
FBE07F80
FF801F80
FF000FC0
FE0007C0
FC0007C0
FC0003E0
FC0003E0
F80003E0
F80003E0
F80003E0
F80003E0
F80003E0
F80003E0
F80003E0
F80003E0
F80003E0
F80003E0
F80003E0
F80003E0
F80003E0
F80003E0
F80003E0
F80003E0
F80003E0
F80003E0
F80003E0
F80003E0
F80003E0
F80003E0
ENDCHAR
STARTCHAR o
ENCODING 111
SWIDTH 611 0
DWIDTH 35 0
BBX 29 34 3 -1
BITMAP
003FE000
00FFF800
03FFFE00
07FFFF00
0FE07F80
1FC01FC0
3F0007E0
3F0007E0
7E0003F0
7C0001F0
7C0001F0
7C0001F0
F80000F8
F80000F8
F80000F8
F80000F8
F80000F8
F80000F8
F80000F8
F80000F8
F80000F8
F80000F8
7C0001F0
7C0001F0
7C0001F0
7E0003F0
3F0007E0
3F0007E0
1FC01FC0
0FE03F80
07FFFF00
03FFFE00
00FFF800
003FE000
ENDCHAR
STARTCHAR p
ENCODING 112
SWIDTH 634 0
DWIDTH 37 0
BBX 28 45 5 -12
BITMAP
001FE000
F87FF800
F8FFFC00
F9FFFE00
FBE07F00
FF801F80
FF000FC0
FE0007C0
FE0007E0
FC0003E0
FC0003E0
FC0003E0
F80001F0
F80001F0
F80001F0
F80001F0
F80001F0
F80001F0
F80001F0
F80001F0
F80001F0
F80001F0
FC0003E0
FC0003E0
FC0003E0
FE0007E0
FE0007C0
FF000FC0
FF801F80
FBE07F00
F9FFFE00
F8FFFC00
F87FF800
F81FE000
F8000000
F8000000
F8000000
F8000000
F8000000
F8000000
F8000000
F8000000
F8000000
F8000000
F8000000
ENDCHAR
STARTCHAR q
ENCODING 113
SWIDTH 634 0
DWIDTH 37 0
BBX 28 45 3 -12
BITMAP
007F8000
01FFE1F0
03FFF1F0
07FFF9F0
0FE07DF0
1F801FF0
3F000FF0
3E0007F0
7E0007F0
7C0003F0
7C0003F0
7C0003F0
F80001F0
F80001F0
F80001F0
F80001F0
F80001F0
F80001F0
F80001F0
F80001F0
F80001F0
F80001F0
7C0003F0
7C0003F0
7C0003F0
7E0007F0
3E0007F0
3F000FF0
1F801FF0
0FE07DF0
07FFF9F0
03FFF1F0
01FFE1F0
007F81F0
000001F0
000001F0
000001F0
000001F0
000001F0
000001F0
000001F0
000001F0
000001F0
000001F0
000001F0
ENDCHAR
STARTCHAR r
ENCODING 114
SWIDTH 411 0
DWIDTH 24 0
BBX 19 33 5 0
BITMAP
000FE0
F87FE0
F8FFE0
F9FFE0
FBE020
FF8000
FF0000
FE0000
FE0000
FC0000
FC0000
F80000
F80000
F80000
F80000
F80000
F80000
F80000
F80000
F80000
F80000
F80000
F80000
F80000
F80000
F80000
F80000
F80000
F80000
F80000
F80000
F80000
F80000
ENDCHAR
STARTCHAR s
ENCODING 115
SWIDTH 520 0
DWIDTH 30 0
BBX 24 34 3 -1
BITMAP
00FFE0
07FFFC
1FFFFC
3FFFFC
7F807C
7E0004
FC0000
F80000
F80000
F80000
F80000
FC0000
FE0000
7F8000
7FF800
3FFF80
1FFFE0
07FFF8
007FFC
0007FE
0000FE
00003F
00003F
00001F
00001F
00001F
00001F
80003E
E0007E
FE01FC
FFFFF8
FFFFF0
3FFFE0
03FF00
ENDCHAR
STARTCHAR t
ENCODING 116
SWIDTH 392 0
DWIDTH 23 0
BBX 20 41 1 0
BITMAP
0F8000
0F8000
0F8000
0F8000
0F8000
0F8000
0F8000
0F8000
0F8000
FFFFF0
FFFFF0
FFFFF0
FFFFF0
0F8000
0F8000
0F8000
0F8000
0F8000
0F8000
0F8000
0F8000
0F8000
0F8000
0F8000
0F8000
0F8000
0F8000
0F8000
0F8000
0F8000
0F8000
0F8000
0F8000
0F8000
0F8000
07C000
07E000
07FFF0
03FFF0
01FFF0
003FF0
ENDCHAR
STARTCHAR u
ENCODING 117
SWIDTH 633 0
DWIDTH 37 0
BBX 27 33 5 -1
BITMAP
F80003E0
F80003E0
F80003E0
F80003E0
F80003E0
F80003E0
F80003E0
F80003E0
F80003E0
F80003E0
F80003E0
F80003E0
F80003E0
F80003E0
F80003E0
F80003E0
F80003E0
F80003E0
F80003E0
F80003E0
F80003E0
F80003E0
F80007E0
F80007E0
7C0007E0
7C000FE0
7E001FE0
3F003FE0
3FC0FBE0
1FFFF3E0
0FFFE3E0
07FFC3E0
01FE0000
ENDCHAR
STARTCHAR v
ENCODING 118
SWIDTH 591 0
DWIDTH 34 0
BBX 31 32 2 0
BITMAP
FC00007E
7C00007C
7C00007C
7E0000FC
3E0000F8
3E0000F8
3F0001F8
1F0001F0
1F8003F0
0F8003E0
0F8003E0
0FC007E0
07C007C0
07C007C0
07E00FC0
03E00F80
03E01F80
01F01F00
01F01F00
01F83F00
00F83E00
00F83E00
00FC7E00
007C7C00
007C7C00
003EFC00
003EF800
003FF800
001FF000
001FF000
001FF000
000FE000
ENDCHAR
STARTCHAR w
ENCODING 119
SWIDTH 817 0
DWIDTH 47 0
BBX 43 32 2 0
BITMAP
F8003F8003E0
FC007FC007E0
7C007FC007C0
7C007FC007C0
7C007FC007C0
7E00FFE00FC0
3E00FBE00F80
3E00FBE00F80
3E00FBE00F80
3F01F9F01F80
1F01F1F01F00
1F01F1F01F00
1F01F1F01F00
0F83E0F83E00
0F83E0F83E00
0F83E0F83E00
0F87E0F87E00
07C7C07C7C00
07C7C07C7C00
07C7C07C7C00
07EFC07EFC00
03EF803EF800
03EF803EF800
03EF803EF800
03FF803FF800
01FF001FF000
01FF001FF000
01FF001FF000
01FF001FF000
00FE000FE000
00FE000FE000
00FE000FE000
ENDCHAR
STARTCHAR x
ENCODING 120
SWIDTH 591 0
DWIDTH 34 0
BBX 31 32 2 0
BITMAP
7F0001FC
3F0001F8
1F8003F0
0FC007E0
0FE00FE0
07E00FC0
03F01F80
01F83F80
01F83F00
00FC7E00
007EFC00
007FFC00
003FF800
001FF000
000FE000
000FE000
001FE000
001FF000
003FF800
007FFC00
00FEFC00
00FC7E00
01F83F00
03F03F80
07F01F80
07E00FC0
0FC007E0
1F8007F0
1F8003F0
3F0001F8
7E0000FC
FE0000FE
ENDCHAR
STARTCHAR y
ENCODING 121
SWIDTH 591 0
DWIDTH 34 0
BBX 31 44 2 -12
BITMAP
FC00007E
7C00007C
7C00007C
7E0000FC
3E0000F8
3F0001F8
1F0001F0
1F0001F0
1F8003F0
0F8003E0
0FC007E0
07C007C0
07E007C0
03E00FC0
03E00F80
03F01F80
01F01F00
01F81F00
00F83F00
00F83E00
00FC7E00
007C7E00
007E7C00
003EFC00
003EF800
003FF800
001FF800
001FF000
000FF000
000FE000
0007E000
0007E000
0007C000
000FC000
000F8000
000F8000
001F8000
001F0000
003F0000
007E0000
1FFC0000
1FFC0000
1FF80000
1FE00000
ENDCHAR
STARTCHAR z
ENCODING 122
SWIDTH 524 0
DWIDTH 30 0
BBX 25 32 3 0
BITMAP
7FFFFF80
7FFFFF80
7FFFFF80
7FFFFF80
00001F80
00003F00
00007F00
0000FE00
0001FC00
0001F800
0003F000
0007E000
000FE000
001FC000
003F8000
003F0000
007E0000
00FE0000
01FC0000
03F80000
03F00000
07E00000
0FC00000
1FC00000
3F800000
7F000000
7E000000
FC000000
FFFFFF80
FFFFFF80
FFFFFF80
FFFFFF80
ENDCHAR
STARTCHAR braceleft
ENCODING 123
SWIDTH 636 0
DWIDTH 37 0
BBX 22 54 7 -10
BITMAP
0001FC
000FFC
001FFC
003FFC
003F00
007E00
007C00
007C00
007C00
007C00
007C00
007C00
007C00
007C00
007C00
007C00
007C00
007C00
007C00
007C00
007C00
00FC00
00F800
01F800
03F800
FFF000
FFC000
FFC000
FFF000
07F800
01F800
00F800
00FC00
007C00
007C00
007C00
007C00
007C00
007C00
007C00
007C00
007C00
007C00
007C00
007C00
007C00
007C00
007C00
007E00
003F80
003FFC
001FFC
000FFC
0001FC
ENDCHAR
STARTCHAR bar
ENCODING 124
SWIDTH 336 0
DWIDTH 20 0
BBX 5 58 7 -14
BITMAP
F8
F8
F8
F8
F8
F8
F8
F8
F8
F8
F8
F8
F8
F8
F8
F8
F8
F8
F8
F8
F8
F8
F8
F8
F8
F8
F8
F8
F8
F8
F8
F8
F8
F8
F8
F8
F8
F8
F8
F8
F8
F8
F8
F8
F8
F8
F8
F8
F8
F8
F8
F8
F8
F8
F8
F8
F8
F8
ENDCHAR
STARTCHAR braceright
ENCODING 125
SWIDTH 636 0
DWIDTH 37 0
BBX 22 54 8 -10
BITMAP
FE0000
FFC000
FFE000
FFF000
03F000
01F000
01F800
00F800
00F800
00F800
00F800
00F800
00F800
00F800
00F800
00F800
00F800
00F800
00F800
00F800
00F800
00FC00
00FC00
007E00
007F80
003FFC
000FFC
000FFC
003FFC
007F80
007E00
007C00
00F800
00F800
00F800
00F800
00F800
00F800
00F800
00F800
00F800
00F800
00F800
00F800
00F800
00F800
00F800
00F800
01F000
03F000
FFF000
FFE000
FFC000
FE0000
ENDCHAR
STARTCHAR asciitilde
ENCODING 126
SWIDTH 837 0
DWIDTH 49 0
BBX 36 9 6 14
BITMAP
01FC000010
0FFF800070
1FFFF001F0
7FFFFE07F0
FFFFFFFFF0
FE07FFFFE0
F000FFFF80
E0001FFF00
800003F800
ENDCHAR
STARTCHAR nonbreakingspace
ENCODING 160
SWIDTH 636 0
DWIDTH 37 0
BBX 1 1 0 0
BITMAP
00
ENDCHAR
STARTCHAR exclamdown
ENCODING 161
SWIDTH 400 0
DWIDTH 23 0
BBX 6 42 9 0
BITMAP
FC
FC
FC
FC
FC
FC
FC
00
00
00
00
00
00
78
78
FC
FC
FC
FC
FC
FC
FC
FC
FC
FC
FC
FC
FC
FC
FC
FC
FC
FC
FC
FC
FC
FC
FC
FC
FC
FC
FC
ENDCHAR
STARTCHAR cent
ENCODING 162
SWIDTH 636 0
DWIDTH 37 0
BBX 25 50 5 -9
BITMAP
00038000
00038000
00038000
00038000
00038000
00038000
00038000
00038000
001FFC00
00FFFF80
01FFFF80
07FFFF80
0FF38780
1FC38080
1F838000
3F038000
3E038000
7E038000
7C038000
7C038000
FC038000
F8038000
F8038000
F8038000
F8038000
F8038000
F8038000
F8038000
F8038000
F8038000
7C038000
7C038000
7C038000
3E038000
3F038000
1F838000
1FC38080
0FF38F80
07FFFF80
03FFFF80
00FFFF80
001FFE00
00038000
00038000
00038000
00038000
00038000
00038000
00038000
00038000
ENDCHAR
STARTCHAR sterling
ENCODING 163
SWIDTH 636 0
DWIDTH 37 0
BBX 28 43 3 0
BITMAP
0001FE00
000FFFC0
001FFFE0
003FFFE0
007F03E0
007C0060
00FC0020
00F80000
00F80000
01F80000
01F00000
01F00000
01F00000
01F00000
01F00000
01F00000
01F00000
01F00000
01F00000
01F00000
01F00000
01F00000
7FFFFE00
7FFFFE00
7FFFFE00
7FFFFE00
01F00000
01F00000
01F00000
01F00000
01F00000
01F00000
01F00000
01F00000
01F00000
01F00000
01F00000
01F00000
01F00000
FFFFFFF0
FFFFFFF0
FFFFFFF0
FFFFFFF0
ENDCHAR
STARTCHAR currency
ENCODING 164
SWIDTH 636 0
DWIDTH 37 0
BBX 32 32 2 2
BITMAP
10000008
3800001C
7C00003E
FE00007F
7F0FF0FE
3FBFFDFC
1FFFFFF8
0FFFFFF0
07F81FE0
03E007C0
07C003E0
078001E0
0F8001F0
0F0000F0
0F0000F0
0F0000F0
0F0000F0
0F0000F0
0F0000F0
0F8001F0
078001E0
07C003E0
03E007C0
07F81FE0
0FFFFFF0
1FFFFFF8
3FBFFDFC
7F0FF0FE
FE00007F
7C00003E
3800001C
10000008
ENDCHAR
STARTCHAR yen
ENCODING 165
SWIDTH 636 0
DWIDTH 37 0
BBX 31 42 3 0
BITMAP
FC00007E
7C00007C
7E0000FC
3F0001F8
3F0001F8
1F8003F0
1F8003F0
0FC007E0
0FC007E0
07E00FC0
07E00FC0
03F01F80
03F01F80
01F83F00
01F83F00
00FC7E00
00FC7E00
7FFEFFFC
7FFFFFFC
7FFFFFFC
001FF000
001FF000
000FE000
000FE000
0007C000
0007C000
7FFFFFFC
7FFFFFFC
7FFFFFFC
0007C000
0007C000
0007C000
0007C000
0007C000
0007C000
0007C000
0007C000
0007C000
0007C000
0007C000
0007C000
0007C000
ENDCHAR
STARTCHAR brokenbar
ENCODING 166
SWIDTH 336 0
DWIDTH 20 0
BBX 5 50 7 -10
BITMAP
F8
F8
F8
F8
F8
F8
F8
F8
F8
F8
F8
F8
F8
F8
F8
F8
F8
F8
F8
F8
F8
00
00
00
00
00
00
00
00
F8
F8
F8
F8
F8
F8
F8
F8
F8
F8
F8
F8
F8
F8
F8
F8
F8
F8
F8
F8
F8
ENDCHAR
STARTCHAR section
ENCODING 167
SWIDTH 500 0
DWIDTH 29 0
BBX 24 49 3 -6
BITMAP
00FF80
03FFF0
07FFF8
0FFFF8
1FC0F8
3F0008
3E0000
3E0000
3E0000
3E0000
3F0000
1F8000
1FC000
0FF000
07FC00
0FFF00
1FFF80
3E3FE0
7C1FF0
7C07F8
F801FC
F800FE
F8007E
F8003F
FC001F
FC001F
7F001F
7F801F
3FC01F
1FF03E
07FC7C
03FEFC
00FFF8
007FE0
001FE0
0007F0
0003F8
0001F8
0000FC
00007C
00007C
00007C
0000FC
2000F8
3E03F8
3FFFF0
3FFFE0
1FFFC0
01FE00
ENDCHAR
STARTCHAR dieresis
ENCODING 168
SWIDTH 500 0
DWIDTH 29 0
BBX 17 6 6 38
BITMAP
FC1F80
FC1F80
FC1F80
FC1F80
FC1F80
FC1F80
ENDCHAR
STARTCHAR copyright
ENCODING 169
SWIDTH 1000 0
DWIDTH 58 0
BBX 42 42 8 0
BITMAP
0000FFC00000
0007FFF80000
001FFFFE0000
007F807F8000
00FC000FC000
01F00003E000
03C00000F000
078000007800
0F003F803C00
1E01FFF01E00
1C07FFF80E00
3C0FE0780F00
381F80180700
781E00080780
703E00000380
703C00000380
F03C000003C0
E078000001C0
E078000001C0
E078000001C0
E078000001C0
E078000001C0
E078000001C0
E078000001C0
E078000001C0
F03C000003C0
703C00000380
703E00000380
781E00080780
380F80180700
3C0FE0780F00
1C07FFF80E00
1E01FFF01E00
0F007F803C00
078000007800
03C00000F000
01F00003E000
00FC000FC000
007F807F8000
001FFFFE0000
0007FFF80000
0000FFC00000
ENDCHAR
STARTCHAR ordfeminine
ENCODING 170
SWIDTH 471 0
DWIDTH 27 0
BBX 20 29 3 14
BITMAP
0FFC00
3FFF00
3FFFC0
3C07E0
2001E0
0001E0
0000F0
0000F0
03FFF0
1FFFF0
3FFFF0
7E00F0
7800F0
F000F0
F000F0
F001F0
F001F0
F003F0
F807F0
7E0FF0
3FFEF0
1FFCF0
07F000
000000
000000
000000
7FFFF0
7FFFF0
7FFFF0
ENDCHAR
STARTCHAR guillemotleft
ENCODING 171
SWIDTH 611 0
DWIDTH 35 0
BBX 25 26 4 4
BITMAP
00080080
00180180
00380380
00780780
00F80F80
01F81F80
03F03F00
07E07E00
0FC0FC00
1F81F800
7E07E000
FC0FC000
F80F8000
F80F8000
FC0FC000
7E07E000
1F81F800
0FC0FC00
07E07E00
03F03F00
01F81F80
00F80F80
00780780
00380380
00180180
00080080
ENDCHAR
STARTCHAR logicalnot
ENCODING 172
SWIDTH 837 0
DWIDTH 49 0
BBX 36 16 6 8
BITMAP
FFFFFFFFF0
FFFFFFFFF0
FFFFFFFFF0
FFFFFFFFF0
FFFFFFFFF0
00000001F0
00000001F0
00000001F0
00000001F0
00000001F0
00000001F0
00000001F0
00000001F0
00000001F0
00000001F0
00000001F0
ENDCHAR
STARTCHAR sfthyphen
ENCODING 173
SWIDTH 360 0
DWIDTH 21 0
BBX 15 5 3 14
BITMAP
FFFE
FFFE
FFFE
FFFE
FFFE
ENDCHAR
STARTCHAR registered
ENCODING 174
SWIDTH 1000 0
DWIDTH 58 0
BBX 42 42 8 0
BITMAP
0000FFC00000
0007FFF80000
001FFFFE0000
007F807F8000
00FC000FC000
01F00003E000
03C00000F000
078000007800
0F0000003C00
1E07FF801E00
1C07FFE00E00
3C07FFF80F00
380780F80700
7807807C0780
7007803C0380
7007803C0380
F007803C03C0
E007803C01C0
E007807C01C0
E00780F801C0
E007FFF001C0
E007FFE001C0
E007FF8001C0
E00787C001C0
E00783E001C0
F00781F003C0
700780F80380
700780780380
7807807C0780
3807803C0700
3C07801E0F00
1C07801F0E00
1E0000001E00
0F0000003C00
078000007800
03C00000F000
01F00003E000
00FC000FC000
007F807F8000
001FFFFE0000
0007FFF80000
0000FFC00000
ENDCHAR
STARTCHAR macron
ENCODING 175
SWIDTH 500 0
DWIDTH 29 0
BBX 17 4 6 39
BITMAP
FFFF80
FFFF80
FFFF80
FFFF80
ENDCHAR
STARTCHAR degree
ENCODING 176
SWIDTH 500 0
DWIDTH 29 0
BBX 18 18 6 25
BITMAP
03F000
0FFC00
1FFE00
3FFF00
7E1F80
780780
F807C0
F003C0
F003C0
F003C0
F003C0
F807C0
780780
7E1F80
3FFF00
1FFE00
0FFC00
03F000
ENDCHAR
STARTCHAR plusminus
ENCODING 177
SWIDTH 837 0
DWIDTH 49 0
BBX 37 36 6 0
BITMAP
0000F80000
0000F80000
0000F80000
0000F80000
0000F80000
0000F80000
0000F80000
0000F80000
0000F80000
0000F80000
0000F80000
FFFFFFFFF8
FFFFFFFFF8
FFFFFFFFF8
FFFFFFFFF8
FFFFFFFFF8
0000F80000
0000F80000
0000F80000
0000F80000
0000F80000
0000F80000
0000F80000
0000F80000
0000F80000
0000F80000
0000F80000
0000000000
0000000000
0000000000
0000000000
FFFFFFFFF8
FFFFFFFFF8
FFFFFFFFF8
FFFFFFFFF8
FFFFFFFFF8
ENDCHAR
STARTCHAR twosuperior
ENCODING 178
SWIDTH 400 0
DWIDTH 23 0
BBX 17 24 3 19
BITMAP
0FF000
7FFC00
FFFE00
F03F00
800F80
000780
000780
000780
000780
000F00
001F00
003E00
007C00
00FC00
01F800
03F000
07E000
0FC000
1F8000
3E0000
7C0000
FFFF80
FFFF80
FFFF80
ENDCHAR
STARTCHAR threesuperior
ENCODING 179
SWIDTH 400 0
DWIDTH 23 0
BBX 18 24 3 19
BITMAP
1FF000
7FFE00
7FFF00
601F80
000F80
000780
000780
000F80
001F00
07FE00
07F800
07FE00
001F80
000780
0003C0
0003C0
0003C0
0003C0
0007C0
000780
C01F80
FFFF00
FFFC00
3FF000
ENDCHAR
STARTCHAR acute
ENCODING 180
SWIDTH 500 0
DWIDTH 29 0
BBX 14 11 10 35
BITMAP
00FC
01F8
03F0
03E0
07C0
0F80
1F00
1F00
3E00
7C00
F800
ENDCHAR
STARTCHAR mu
ENCODING 181
SWIDTH 636 0
DWIDTH 37 0
BBX 31 44 5 -12
BITMAP
F80003E0
F80003E0
F80003E0
F80003E0
F80003E0
F80003E0
F80003E0
F80003E0
F80003E0
F80003E0
F80003E0
F80003E0
F80003E0
F80003E0
F80003E0
F80003E0
F80003E0
F80003E0
F80003E0
F80003E0
F80003E0
F80003E0
F80003E0
F80007E0
FC0007E0
FC000FE0
FE000FE0
FF001FF2
FFC07FFE
FFFFFFFE
FBFFF9FE
F9FFF1FE
F83F80FC
F8000000
F8000000
F8000000
F8000000
F8000000
F8000000
F8000000
F8000000
F8000000
F8000000
F8000000
ENDCHAR
STARTCHAR paragraph
ENCODING 182
SWIDTH 636 0
DWIDTH 37 0
BBX 26 48 4 -6
BITMAP
007FFFC0
03FFFFC0
07FFFFC0
1FFF83C0
1FFF83C0
3FFF83C0
7FFF83C0
7FFF83C0
FFFF83C0
FFFF83C0
FFFF83C0
FFFF83C0
FFFF83C0
FFFF83C0
FFFF83C0
FFFF83C0
7FFF83C0
7FFF83C0
3FFF83C0
1FFF83C0
0FFF83C0
07FF83C0
01FF83C0
001F83C0
000783C0
000783C0
000783C0
000783C0
000783C0
000783C0
000783C0
000783C0
000783C0
000783C0
000783C0
000783C0
000783C0
000783C0
000783C0
000783C0
000783C0
000783C0
000783C0
000783C0
000783C0
000783C0
000783C0
000783C0
ENDCHAR
STARTCHAR periodcentered
ENCODING 183
SWIDTH 317 0
DWIDTH 18 0
BBX 5 7 6 17
BITMAP
F8
F8
F8
F8
F8
F8
F8
ENDCHAR
STARTCHAR cedilla
ENCODING 184
SWIDTH 500 0
DWIDTH 29 0
BBX 12 11 8 -11
BITMAP
0380
01C0
01E0
00E0
00F0
00F0
00F0
81F0
FFE0
FFE0
FF80
ENDCHAR
STARTCHAR onesuperior
ENCODING 185
SWIDTH 400 0
DWIDTH 23 0
BBX 16 24 4 19
BITMAP
1FC0
FFC0
FFC0
E3C0
03C0
03C0
03C0
03C0
03C0
03C0
03C0
03C0
03C0
03C0
03C0
03C0
03C0
03C0
03C0
03C0
03C0
FFFF
FFFF
FFFF
ENDCHAR
STARTCHAR ordmasculine
ENCODING 186
SWIDTH 471 0
DWIDTH 27 0
BBX 22 29 3 14
BITMAP
01FE00
07FF80
0FFFC0
1F03E0
3E01F0
7C00F8
780078
F80078
F0003C
F0003C
F0003C
F0003C
F0003C
F0003C
F0003C
F8007C
780078
7C00F8
3E01F0
1F03E0
0FFFC0
07FF80
01FE00
000000
000000
000000
7FFFF8
7FFFF8
7FFFF8
ENDCHAR
STARTCHAR guillemotright
ENCODING 187
SWIDTH 611 0
DWIDTH 35 0
BBX 25 26 5 4
BITMAP
80080000
C00C0000
E00E0000
F00F0000
F80F8000
FC0FC000
7E07E000
3F03F000
1F81F800
0FC0FC00
03F03F00
01F81F80
00F80F80
00F80F80
01F81F80
03F03F00
0FC0FC00
1F81F800
3F03F000
7E07E000
FC0FC000
F80F8000
F00F0000
E00E0000
C00C0000
80080000
ENDCHAR
STARTCHAR onequarter
ENCODING 188
SWIDTH 969 0
DWIDTH 56 0
BBX 51 44 4 -1
BITMAP
1FC000003E0000
FFC000007C0000
FFC000007C0000
E3C00000F80000
03C00000F00000
03C00001F00000
03C00003E00000
03C00003E00000
03C00007C00000
03C00007800000
03C0000F800000
03C0001F000000
03C0001F000000
03C0003E000000
03C0003C000000
03C0007C000000
03C000F8000000
03C000F8000000
03C001F0000000
03C001E0003E00
03C003E0007E00
FFFF07C000FE00
FFFF07C000FE00
FFFF0F8001DE00
00000F0003DE00
00001F00079E00
00003E00071E00
00003E000E1E00
00007C001E1E00
000078001C1E00
0000F800381E00
0001F000781E00
0001F000F01E00
0003E000E01E00
0003C001C01E00
0007C001FFFFE0
000F8001FFFFE0
000F8001FFFFE0
001F0000001E00
001E0000001E00
003E0000001E00
007C0000001E00
007C0000001E00
00F80000000000
ENDCHAR
STARTCHAR onehalf
ENCODING 189
SWIDTH 969 0
DWIDTH 56 0
BBX 49 44 4 -1
BITMAP
1FC000003E0000
FFC000007C0000
FFC000007C0000
E3C00000F80000
03C00000F00000
03C00001F00000
03C00003E00000
03C00003E00000
03C00007C00000
03C00007800000
03C0000F800000
03C0001F000000
03C0001F000000
03C0003E000000
03C0003C000000
03C0007C000000
03C000F8000000
03C000F8000000
03C001F0000000
03C001E00FF000
03C003E07FFC00
FFFF07C0FFFE00
FFFF07C0F03F00
FFFF0F80800F80
00000F00000780
00001F00000780
00003E00000780
00003E00000780
00007C00000F00
00007800001F00
0000F800003E00
0001F000007C00
0001F00000FC00
0003E00001F800
0003C00003F000
0007C00007E000
000F80000FC000
000F80001F8000
001F00003E0000
001E00007C0000
003E0000FFFF80
007C0000FFFF80
007C0000FFFF80
00F80000000000
ENDCHAR
STARTCHAR threequarters
ENCODING 190
SWIDTH 969 0
DWIDTH 56 0
BBX 52 44 3 -1
BITMAP
1FF000001F0000
7FFE00003E0000
7FFF00003E0000
601F80007C0000
000F8000780000
00078000F80000
00078001F00000
000F8001F00000
001F0003E00000
07FE0003C00000
07F80007C00000
07FE000F800000
001F800F800000
0007801F000000
0003C01E000000
0003C03E000000
0003C07C000000
0003C07C000000
0007C0F8000000
000780F0001F00
C01F81F0003F00
FFFF03E0007F00
FFFC03E0007F00
3FF007C000EF00
0000078001EF00
00000F8003CF00
00001F00038F00
00001F00070F00
00003E000F0F00
00003C000E0F00
00007C001C0F00
0000F8003C0F00
0000F800780F00
0001F000700F00
0001E000E00F00
0003E000FFFFF0
0007C000FFFFF0
0007C000FFFFF0
000F8000000F00
000F0000000F00
001F0000000F00
003E0000000F00
003E0000000F00
007C0000000000
ENDCHAR
STARTCHAR questiondown
ENCODING 191
SWIDTH 530 0
DWIDTH 31 0
BBX 23 43 4 -1
BITMAP
001F00
001F00
001F00
001F00
001F00
001F00
001F00
000000
000000
000000
000000
001F00
001F00
001F00
001F00
001F00
001F00
001F00
001F00
003F00
007E00
00FE00
01FC00
07F800
0FF800
1FF000
3FC000
3F8000
7F0000
7E0000
FC0000
F80000
F80000
F80000
F80000
F80002
7C0006
7E001E
3F80FE
3FFFFE
1FFFFC
07FFF0
01FF00
ENDCHAR
STARTCHAR Agrave
ENCODING 192
SWIDTH 684 0
DWIDTH 40 0
BBX 39 54 0 0
BITMAP
0007E00000
0003F00000
0001F00000
0000F80000
00007C0000
00003E0000
00001E0000
0000000000
0000000000
0000000000
0000000000
0000000000
0000FE0000
0000FE0000
0001FF0000
0001FF0000
0003FF8000
0003EF8000
0003EF8000
0007EFC000
0007C7C000
0007C7C000
000FC7E000
000F83E000
001F83F000
001F01F000
001F01F000
003F01F800
003E00F800
007E00FC00
007C007C00
007C007C00
00FC007E00
00F8003E00
00F8003E00
01F8003F00
01F0001F00
03F0001F80
03FFFFFF80
03FFFFFF80
07FFFFFFC0
07FFFFFFC0
0FC00007E0
0F800003E0
0F800003E0
1F800003F0
1F000001F0
3F000001F0
3F000000F8
3E000000F8
7E000000FC
7C0000007C
7C0000007C
FC0000007E
ENDCHAR
STARTCHAR Aacute
ENCODING 193
SWIDTH 684 0
DWIDTH 40 0
BBX 39 54 0 0
BITMAP
000007C000
00000F8000
00000F0000
00001F0000
00003E0000
00007C0000
0000F80000
0000000000
0000000000
0000000000
0000000000
0000000000
0000FE0000
0000FE0000
0001FF0000
0001FF0000
0003FF8000
0003EF8000
0003EF8000
0007EFC000
0007C7C000
0007C7C000
000FC7E000
000F83E000
001F83F000
001F01F000
001F01F000
003F01F800
003E00F800
007E00FC00
007C007C00
007C007C00
00FC007E00
00F8003E00
00F8003E00
01F8003F00
01F0001F00
03F0001F80
03FFFFFF80
03FFFFFF80
07FFFFFFC0
07FFFFFFC0
0FC00007E0
0F800003E0
0F800003E0
1F800003F0
1F000001F0
3F000001F0
3F000000F8
3E000000F8
7E000000FC
7C0000007C
7C0000007C
FC0000007E
ENDCHAR
STARTCHAR Acircumflex
ENCODING 194
SWIDTH 684 0
DWIDTH 40 0
BBX 39 55 0 0
BITMAP
00007E0000
0000FE0000
0001FF0000
0003EF8000
0003C78000
000783C000
000F01E000
001E00F000
0000000000
0000000000
0000000000
0000000000
0000000000
0000FE0000
0000FE0000
0001FF0000
0001FF0000
0003FF8000
0003EF8000
0003EF8000
0007EFC000
0007C7C000
0007C7C000
000FC7E000
000F83E000
001F83F000
001F01F000
001F01F000
003F01F800
003E00F800
007E00FC00
007C007C00
007C007C00
00FC007E00
00F8003E00
00F8003E00
01F8003F00
01F0001F00
03F0001F80
03FFFFFF80
03FFFFFF80
07FFFFFFC0
07FFFFFFC0
0FC00007E0
0F800003E0
0F800003E0
1F800003F0
1F000001F0
3F000001F0
3F000000F8
3E000000F8
7E000000FC
7C0000007C
7C0000007C
FC0000007E
ENDCHAR
STARTCHAR Atilde
ENCODING 195
SWIDTH 684 0
DWIDTH 40 0
BBX 39 55 0 0
BITMAP
0007C03800
000FF03800
001FFC7800
001FFFF000
003C7FF000
00381FE000
003807C000
0000000000
0000000000
0000000000
0000000000
0000000000
0000000000
0000FE0000
0000FE0000
0001FF0000
0001FF0000
0003FF8000
0003EF8000
0003EF8000
0007EFC000
0007C7C000
0007C7C000
000FC7E000
000F83E000
001F83F000
001F01F000
001F01F000
003F01F800
003E00F800
007E00FC00
007C007C00
007C007C00
00FC007E00
00F8003E00
00F8003E00
01F8003F00
01F0001F00
03F0001F80
03FFFFFF80
03FFFFFF80
07FFFFFFC0
07FFFFFFC0
0FC00007E0
0F800003E0
0F800003E0
1F800003F0
1F000001F0
3F000001F0
3F000000F8
3E000000F8
7E000000FC
7C0000007C
7C0000007C
FC0000007E
ENDCHAR
STARTCHAR Adieresis
ENCODING 196
SWIDTH 684 0
DWIDTH 40 0
BBX 39 54 0 0
BITMAP
001F83F000
001F83F000
001F83F000
001F83F000
001F83F000
001F83F000
0000000000
0000000000
0000000000
0000000000
0000000000
0000000000
0000FE0000
0000FE0000
0001FF0000
0001FF0000
0003FF8000
0003EF8000
0003EF8000
0007EFC000
0007C7C000
0007C7C000
000FC7E000
000F83E000
001F83F000
001F01F000
001F01F000
003F01F800
003E00F800
007E00FC00
007C007C00
007C007C00
00FC007E00
00F8003E00
00F8003E00
01F8003F00
01F0001F00
03F0001F80
03FFFFFF80
03FFFFFF80
07FFFFFFC0
07FFFFFFC0
0FC00007E0
0F800003E0
0F800003E0
1F800003F0
1F000001F0
3F000001F0
3F000000F8
3E000000F8
7E000000FC
7C0000007C
7C0000007C
FC0000007E
ENDCHAR
STARTCHAR Aring
ENCODING 197
SWIDTH 684 0
DWIDTH 40 0
BBX 39 54 0 0
BITMAP
00007C0000
0001FF0000
0003FF8000
000787C000
000701C000
000E00E000
000E00E000
000E00E000
000E00E000
000E00E000
000F01E000
000783C000
0007FFC000
0003FF8000
0001FF0000
0003FF8000
0003EF8000
0003EF8000
0007EFC000
0007C7C000
0007C7C000
000FC7E000
000F83E000
001F83F000
001F01F000
001F01F000
003F01F800
003E00F800
003E00F800
007E00FC00
007C007C00
00FC007E00
00F8003E00
00F8003E00
01F8003F00
01F0001F00
01F0001F00
03F0001F80
03FFFFFF80
07FFFFFFC0
07FFFFFFC0
07FFFFFFC0
0FC00007E0
0F800003E0
0F800003E0
1F800003F0
1F000001F0
3F000001F8
3E000000F8
3E000000F8
7E000000FC
7C0000007C
7C0000007C
FC0000007E
ENDCHAR
STARTCHAR AE
ENCODING 198
SWIDTH 974 0
DWIDTH 57 0
BBX 52 42 0 0
BITMAP
00007FFFFFFFE0
00007FFFFFFFE0
0000FFFFFFFFE0
0000FFFFFFFFE0
0000F87C000000
0001F87C000000
0001F07C000000
0003F07C000000
0003E07C000000
0003E07C000000
0007E07C000000
0007C07C000000
000FC07C000000
000F807C000000
001F807C000000
001F007C000000
001F007C000000
003F007FFFFFE0
003E007FFFFFE0
007E007FFFFFE0
007C007FFFFFE0
007C007C000000
00FC007C000000
00F8007C000000
01F8007C000000
01F0007C000000
03FFFFFC000000
03FFFFFC000000
03FFFFFC000000
07FFFFFC000000
07C0007C000000
0FC0007C000000
0F80007C000000
0F80007C000000
1F80007C000000
1F00007C000000
3F00007C000000
3E00007C000000
7E00007FFFFFF0
7C00007FFFFFF0
7C00007FFFFFF0
FC00007FFFFFF0
ENDCHAR
STARTCHAR Ccedilla
ENCODING 199
SWIDTH 698 0
DWIDTH 41 0
BBX 34 54 3 -11
BITMAP
0001FFC000
000FFFF800
003FFFFE00
00FFFFFF80
01FF007FC0
03F8000FC0
07E00003C0
0FC00001C0
1F800000C0
1F00000040
3F00000000
3E00000000
7E00000000
7C00000000
7C00000000
7C00000000
F800000000
F800000000
F800000000
F800000000
F800000000
F800000000
F800000000
F800000000
F800000000
F800000000
F800000000
F800000000
7C00000000
7C00000000
7C00000000
7E00000000
3E00000000
3F00000000
1F00000040
1F800000C0
0FC00001C0
07E00003C0
03F8000FC0
01FF007FC0
00FFFFFF80
003FFFFE00
000FFFF800
0001FFC000
0000070000
0000078000
0000038000
000003C000
000003C000
000003C000
000207C000
0003FF8000
0003FF8000
0003FE0000
ENDCHAR
STARTCHAR Egrave
ENCODING 200
SWIDTH 631 0
DWIDTH 37 0
BBX 27 54 5 0
BITMAP
01F80000
00FC0000
007C0000
003E0000
001F0000
000F8000
00078000
00000000
00000000
00000000
00000000
00000000
FFFFFFC0
FFFFFFC0
FFFFFFC0
FFFFFFC0
F8000000
F8000000
F8000000
F8000000
F8000000
F8000000
F8000000
F8000000
F8000000
F8000000
F8000000
F8000000
F8000000
FFFFFFC0
FFFFFFC0
FFFFFFC0
FFFFFFC0
F8000000
F8000000
F8000000
F8000000
F8000000
F8000000
F8000000
F8000000
F8000000
F8000000
F8000000
F8000000
F8000000
F8000000
F8000000
F8000000
F8000000
FFFFFFE0
FFFFFFE0
FFFFFFE0
FFFFFFE0
ENDCHAR
STARTCHAR Eacute
ENCODING 201
SWIDTH 631 0
DWIDTH 37 0
BBX 27 54 5 0
BITMAP
0001F000
0003E000
0003C000
0007C000
000F8000
001F0000
003E0000
00000000
00000000
00000000
00000000
00000000
FFFFFFC0
FFFFFFC0
FFFFFFC0
FFFFFFC0
F8000000
F8000000
F8000000
F8000000
F8000000
F8000000
F8000000
F8000000
F8000000
F8000000
F8000000
F8000000
F8000000
FFFFFFC0
FFFFFFC0
FFFFFFC0
FFFFFFC0
F8000000
F8000000
F8000000
F8000000
F8000000
F8000000
F8000000
F8000000
F8000000
F8000000
F8000000
F8000000
F8000000
F8000000
F8000000
F8000000
F8000000
FFFFFFE0
FFFFFFE0
FFFFFFE0
FFFFFFE0
ENDCHAR
STARTCHAR Ecircumflex
ENCODING 202
SWIDTH 631 0
DWIDTH 37 0
BBX 27 55 5 0
BITMAP
001F8000
003F8000
007FC000
00FBE000
00F1E000
01E0F000
03C07800
07803C00
00000000
00000000
00000000
00000000
00000000
FFFFFFC0
FFFFFFC0
FFFFFFC0
FFFFFFC0
F8000000
F8000000
F8000000
F8000000
F8000000
F8000000
F8000000
F8000000
F8000000
F8000000
F8000000
F8000000
F8000000
FFFFFFC0
FFFFFFC0
FFFFFFC0
FFFFFFC0
F8000000
F8000000
F8000000
F8000000
F8000000
F8000000
F8000000
F8000000
F8000000
F8000000
F8000000
F8000000
F8000000
F8000000
F8000000
F8000000
F8000000
FFFFFFE0
FFFFFFE0
FFFFFFE0
FFFFFFE0
ENDCHAR
STARTCHAR Edieresis
ENCODING 203
SWIDTH 631 0
DWIDTH 37 0
BBX 27 54 5 0
BITMAP
07E0FC00
07E0FC00
07E0FC00
07E0FC00
07E0FC00
07E0FC00
00000000
00000000
00000000
00000000
00000000
00000000
FFFFFFC0
FFFFFFC0
FFFFFFC0
FFFFFFC0
F8000000
F8000000
F8000000
F8000000
F8000000
F8000000
F8000000
F8000000
F8000000
F8000000
F8000000
F8000000
F8000000
FFFFFFC0
FFFFFFC0
FFFFFFC0
FFFFFFC0
F8000000
F8000000
F8000000
F8000000
F8000000
F8000000
F8000000
F8000000
F8000000
F8000000
F8000000
F8000000
F8000000
F8000000
F8000000
F8000000
F8000000
FFFFFFE0
FFFFFFE0
FFFFFFE0
FFFFFFE0
ENDCHAR
STARTCHAR Igrave
ENCODING 204
SWIDTH 294 0
DWIDTH 17 0
BBX 10 54 2 0
BITMAP
FC00
7E00
3E00
1F00
0F80
07C0
03C0
0000
0000
0000
0000
0000
1F00
1F00
1F00
1F00
1F00
1F00
1F00
1F00
1F00
1F00
1F00
1F00
1F00
1F00
1F00
1F00
1F00
1F00
1F00
1F00
1F00
1F00
1F00
1F00
1F00
1F00
1F00
1F00
1F00
1F00
1F00
1F00
1F00
1F00
1F00
1F00
1F00
1F00
1F00
1F00
1F00
1F00
ENDCHAR
STARTCHAR Iacute
ENCODING 205
SWIDTH 294 0
DWIDTH 17 0
BBX 10 54 5 0
BITMAP
07C0
0F80
0F00
1F00
3E00
7C00
F800
0000
0000
0000
0000
0000
F800
F800
F800
F800
F800
F800
F800
F800
F800
F800
F800
F800
F800
F800
F800
F800
F800
F800
F800
F800
F800
F800
F800
F800
F800
F800
F800
F800
F800
F800
F800
F800
F800
F800
F800
F800
F800
F800
F800
F800
F800
F800
ENDCHAR
STARTCHAR Icircumflex
ENCODING 206
SWIDTH 294 0
DWIDTH 17 0
BBX 17 55 0 0
BITMAP
03F000
07F000
0FF800
1F7C00
1E3C00
3C1E00
780F00
F00780
000000
000000
000000
000000
000000
07C000
07C000
07C000
07C000
07C000
07C000
07C000
07C000
07C000
07C000
07C000
07C000
07C000
07C000
07C000
07C000
07C000
07C000
07C000
07C000
07C000
07C000
07C000
07C000
07C000
07C000
07C000
07C000
07C000
07C000
07C000
07C000
07C000
07C000
07C000
07C000
07C000
07C000
07C000
07C000
07C000
07C000
ENDCHAR
STARTCHAR Idieresis
ENCODING 207
SWIDTH 294 0
DWIDTH 17 0
BBX 17 54 0 0
BITMAP
FC1F80
FC1F80
FC1F80
FC1F80
FC1F80
FC1F80
000000
000000
000000
000000
000000
000000
07C000
07C000
07C000
07C000
07C000
07C000
07C000
07C000
07C000
07C000
07C000
07C000
07C000
07C000
07C000
07C000
07C000
07C000
07C000
07C000
07C000
07C000
07C000
07C000
07C000
07C000
07C000
07C000
07C000
07C000
07C000
07C000
07C000
07C000
07C000
07C000
07C000
07C000
07C000
07C000
07C000
07C000
ENDCHAR
STARTCHAR Eth
ENCODING 208
SWIDTH 774 0
DWIDTH 45 0
BBX 42 42 0 0
BITMAP
03FFFF800000
03FFFFF80000
03FFFFFF0000
03FFFFFFC000
03E000FFE000
03E0000FF000
03E00003F800
03E00000FC00
03E000007E00
03E000003F00
03E000003F00
03E000001F00
03E000000F80
03E000000F80
03E000000F80
03E000000FC0
03E0000007C0
03E0000007C0
FFFFF80007C0
FFFFF80007C0
FFFFF80007C0
FFFFF80007C0
03E0000007C0
03E0000007C0
03E0000007C0
03E0000007C0
03E000000FC0
03E000000F80
03E000000F80
03E000001F80
03E000001F00
03E000003F00
03E000003F00
03E000007E00
03E00000FC00
03E00003F800
03E0000FF000
03E000FFE000
03FFFFFFC000
03FFFFFF0000
03FFFFF80000
03FFFF000000
ENDCHAR
STARTCHAR Ntilde
ENCODING 209
SWIDTH 748 0
DWIDTH 43 0
BBX 32 55 5 0
BITMAP
003E01C0
007F81C0
00FFE3C0
00FFFF80
01E3FF80
01C0FF00
01C03E00
00000000
00000000
00000000
00000000
00000000
00000000
FF00001F
FF00001F
FF80001F
FF80001F
FFC0001F
FFC0001F
FFE0001F
FBE0001F
FBF0001F
F9F8001F
F9F8001F
F8FC001F
F8FC001F
F87E001F
F83E001F
F83F001F
F81F001F
F81F801F
F80F801F
F80FC01F
F807E01F
F807E01F
F803F01F
F801F01F
F801F81F
F800F81F
F800FC1F
F8007C1F
F8007E1F
F8003F1F
F8003F1F
F8001F9F
F8001F9F
F8000FDF
F80007DF
F80007FF
F80003FF
F80003FF
F80001FF
F80001FF
F80000FF
F80000FF
ENDCHAR
STARTCHAR Ograve
ENCODING 210
SWIDTH 787 0
DWIDTH 46 0
BBX 39 55 3 -1
BITMAP
0007E00000
0003F00000
0001F00000
0000F80000
00007C0000
00003E0000
00001E0000
0000000000
0000000000
0000000000
0000000000
0001FF0000
000FFFF000
003FFFF800
00FFFFFE00
01FF01FF00
03F8003F80
07E0000FC0
0FC00007E0
1F800003F0
1F000001F0
3F000001F8
3E000000F8
7E000000F8
7C0000007C
7C0000007C
7C0000007C
F80000007E
F80000003E
F80000003E
F80000003E
F80000003E
F80000003E
F80000003E
F80000003E
F80000003E
F80000003E
F80000003E
F80000007E
7C0000007C
7C0000007C
7C0000007C
7E000000FC
3E000000F8
3F000001F8
1F000001F0
1F800003F0
0FC00007E0
07E0000FC0
03F8003F80
01FF01FF00
00FFFFFE00
007FFFF800
001FFFF000
0001FF0000
ENDCHAR
STARTCHAR Oacute
ENCODING 211
SWIDTH 787 0
DWIDTH 46 0
BBX 39 55 3 -1
BITMAP
000007C000
00000F8000
00000F0000
00001F0000
00003E0000
00007C0000
0000F80000
0000000000
0000000000
0000000000
0000000000
0001FF0000
000FFFF000
003FFFF800
00FFFFFE00
01FF01FF00
03F8003F80
07E0000FC0
0FC00007E0
1F800003F0
1F000001F0
3F000001F8
3E000000F8
7E000000F8
7C0000007C
7C0000007C
7C0000007C
F80000007E
F80000003E
F80000003E
F80000003E
F80000003E
F80000003E
F80000003E
F80000003E
F80000003E
F80000003E
F80000003E
F80000007E
7C0000007C
7C0000007C
7C0000007C
7E000000FC
3E000000F8
3F000001F8
1F000001F0
1F800003F0
0FC00007E0
07E0000FC0
03F8003F80
01FF01FF00
00FFFFFE00
007FFFF800
001FFFF000
0001FF0000
ENDCHAR
STARTCHAR Ocircumflex
ENCODING 212
SWIDTH 787 0
DWIDTH 46 0
BBX 39 56 3 -1
BITMAP
00007E0000
0000FE0000
0001FF0000
0003EF8000
0003C78000
000783C000
000F01E000
001E00F000
0000000000
0000000000
0000000000
0000000000
0001FF0000
000FFFF000
003FFFF800
00FFFFFE00
01FF01FF00
03F8003F80
07E0000FC0
0FC00007E0
1F800003F0
1F000001F0
3F000001F8
3E000000F8
7E000000F8
7C0000007C
7C0000007C
7C0000007C
F80000007E
F80000003E
F80000003E
F80000003E
F80000003E
F80000003E
F80000003E
F80000003E
F80000003E
F80000003E
F80000003E
F80000007E
7C0000007C
7C0000007C
7C0000007C
7E000000FC
3E000000F8
3F000001F8
1F000001F0
1F800003F0
0FC00007E0
07E0000FC0
03F8003F80
01FF01FF00
00FFFFFE00
007FFFF800
001FFFF000
0001FF0000
ENDCHAR
STARTCHAR Otilde
ENCODING 213
SWIDTH 787 0
DWIDTH 46 0
BBX 39 56 3 -1
BITMAP
0007C03800
000FF03800
001FFC7800
001FFFF000
003C7FF000
00381FE000
003807C000
0000000000
0000000000
0000000000
0000000000
0000000000
0001FF0000
000FFFF000
003FFFF800
00FFFFFE00
01FF01FF00
03F8003F80
07E0000FC0
0FC00007E0
1F800003F0
1F000001F0
3F000001F8
3E000000F8
7E000000F8
7C0000007C
7C0000007C
7C0000007C
F80000007E
F80000003E
F80000003E
F80000003E
F80000003E
F80000003E
F80000003E
F80000003E
F80000003E
F80000003E
F80000003E
F80000007E
7C0000007C
7C0000007C
7C0000007C
7E000000FC
3E000000F8
3F000001F8
1F000001F0
1F800003F0
0FC00007E0
07E0000FC0
03F8003F80
01FF01FF00
00FFFFFE00
007FFFF800
001FFFF000
0001FF0000
ENDCHAR
STARTCHAR Odieresis
ENCODING 214
SWIDTH 787 0
DWIDTH 46 0
BBX 39 55 3 -1
BITMAP
001F83F000
001F83F000
001F83F000
001F83F000
001F83F000
001F83F000
0000000000
0000000000
0000000000
0000000000
0000000000
0001FF0000
000FFFF000
003FFFF800
00FFFFFE00
01FF01FF00
03F8003F80
07E0000FC0
0FC00007E0
1F800003F0
1F000001F0
3F000001F8
3E000000F8
7E000000F8
7C0000007C
7C0000007C
7C0000007C
F80000007E
F80000003E
F80000003E
F80000003E
F80000003E
F80000003E
F80000003E
F80000003E
F80000003E
F80000003E
F80000003E
F80000007E
7C0000007C
7C0000007C
7C0000007C
7E000000FC
3E000000F8
3F000001F8
1F000001F0
1F800003F0
0FC00007E0
07E0000FC0
03F8003F80
01FF01FF00
00FFFFFE00
007FFFF800
001FFFF000
0001FF0000
ENDCHAR
STARTCHAR multiply
ENCODING 215
SWIDTH 837 0
DWIDTH 49 0
BBX 33 33 8 2
BITMAP
1000000400
3800000E00
7C00001F00
FE00003F80
7F00007F00
3F8000FE00
1FC001FC00
0FE003F800
07F007F000
03F80FE000
01FC1FC000
00FE3F8000
007F7F0000
003FFE0000
001FFC0000
000FF80000
0007F00000
000FF80000
001FFC0000
003FFE0000
007F7F0000
00FE3F8000
01FC1FC000
03F80FE000
07F007F000
0FE003F800
1FC001FC00
3F8000FE00
7F00007F00
FE00003F80
7C00001F00
3800000E00
1000000400
ENDCHAR
STARTCHAR Oslash
ENCODING 216
SWIDTH 787 0
DWIDTH 46 0
BBX 39 46 3 -2
BITMAP
000000000C
0001FF800E
000FFFF81E
003FFFFE3C
00FFFFFFFC
01FF01FFF8
03F8003FF0
07E0000FE0
0FC00007F0
0F800007F0
1F00000FF8
3F00001FF8
3E00003EFC
3E00007EFC
7C0000FC7C
7C0001F87C
7C0003F07E
F80003E07E
F80007C03E
F8000F803E
F8001F003E
F8003F003E
F8007E003E
F800FC003E
F801F8003E
F801F0003E
F803E0003E
F807C0003E
F80F80007C
FC1F80007C
7C3F00007C
7C7E00007C
7E7C0000F8
7EF80000F8
3FF00001F8
3FE00001F0
1FC00003E0
1FC00007E0
0FE0000FC0
1FF8003F80
3FFF01FF00
7FFFFFFE00
78FFFFF800
F03FFFE000
7003FF0000
6000000000
ENDCHAR
STARTCHAR Ugrave
ENCODING 217
SWIDTH 731 0
DWIDTH 42 0
BBX 32 55 6 -1
BITMAP
007E0000
003F0000
001F0000
000F8000
0007C000
0003E000
0001E000
00000000
00000000
00000000
00000000
00000000
F800001F
F800001F
F800001F
F800001F
F800001F
F800001F
F800001F
F800001F
F800001F
F800001F
F800001F
F800001F
F800001F
F800001F
F800001F
F800001F
F800001F
F800001F
F800001F
F800001F
F800001F
F800001F
F800001F
F800001F
F800001F
F800001F
F800001F
F800001F
F800001F
F800001F
F800001F
FC00003F
7C00003E
7C00003E
7E00007E
3E00007C
3F0000FC
1F8001F8
0FF00FF0
07FFFFE0
03FFFFC0
00FFFF00
001FF800
ENDCHAR
STARTCHAR Uacute
ENCODING 218
SWIDTH 731 0
DWIDTH 42 0
BBX 32 55 6 -1
BITMAP
00007C00
0000F800
0000F000
0001F000
0003E000
0007C000
000F8000
00000000
00000000
00000000
00000000
00000000
F800001F
F800001F
F800001F
F800001F
F800001F
F800001F
F800001F
F800001F
F800001F
F800001F
F800001F
F800001F
F800001F
F800001F
F800001F
F800001F
F800001F
F800001F
F800001F
F800001F
F800001F
F800001F
F800001F
F800001F
F800001F
F800001F
F800001F
F800001F
F800001F
F800001F
F800001F
FC00003F
7C00003E
7C00003E
7E00007E
3E00007C
3F0000FC
1F8001F8
0FF00FF0
07FFFFE0
03FFFFC0
00FFFF00
001FF800
ENDCHAR
STARTCHAR Ucircumflex
ENCODING 219
SWIDTH 731 0
DWIDTH 42 0
BBX 32 56 6 -1
BITMAP
0007E000
000FE000
001FF000
003EF800
003C7800
00783C00
00F01E00
01E00F00
00000000
00000000
00000000
00000000
00000000
F800001F
F800001F
F800001F
F800001F
F800001F
F800001F
F800001F
F800001F
F800001F
F800001F
F800001F
F800001F
F800001F
F800001F
F800001F
F800001F
F800001F
F800001F
F800001F
F800001F
F800001F
F800001F
F800001F
F800001F
F800001F
F800001F
F800001F
F800001F
F800001F
F800001F
F800001F
FC00003F
7C00003E
7C00003E
7E00007E
3E00007C
3F0000FC
1F8001F8
0FF00FF0
07FFFFE0
03FFFFC0
00FFFF00
001FF800
ENDCHAR
STARTCHAR Udieresis
ENCODING 220
SWIDTH 731 0
DWIDTH 42 0
BBX 32 55 6 -1
BITMAP
01F83F00
01F83F00
01F83F00
01F83F00
01F83F00
01F83F00
00000000
00000000
00000000
00000000
00000000
00000000
F800001F
F800001F
F800001F
F800001F
F800001F
F800001F
F800001F
F800001F
F800001F
F800001F
F800001F
F800001F
F800001F
F800001F
F800001F
F800001F
F800001F
F800001F
F800001F
F800001F
F800001F
F800001F
F800001F
F800001F
F800001F
F800001F
F800001F
F800001F
F800001F
F800001F
F800001F
FC00003F
7C00003E
7C00003E
7E00007E
3E00007C
3F0000FC
1F8001F8
0FF00FF0
07FFFFE0
03FFFFC0
00FFFF00
001FF800
ENDCHAR
STARTCHAR Yacute
ENCODING 221
SWIDTH 610 0
DWIDTH 35 0
BBX 35 54 0 0
BITMAP
00001F0000
00003E0000
00003C0000
00007C0000
0000F80000
0001F00000
0003E00000
0000000000
0000000000
0000000000
0000000000
0000000000
FC000007E0
7E00000FC0
3F00001F80
3F00001F80
1F80003F00
0FC0007E00
0FC0007E00
07E000FC00
03F001F800
03F803F800
01F803F000
00FC07E000
007E0FC000
007E0FC000
003F1F8000
001FBF0000
001FBF0000
000FFE0000
0007FC0000
0007FC0000
0003F80000
0001F00000
0001F00000
0001F00000
0001F00000
0001F00000
0001F00000
0001F00000
0001F00000
0001F00000
0001F00000
0001F00000
0001F00000
0001F00000
0001F00000
0001F00000
0001F00000
0001F00000
0001F00000
0001F00000
0001F00000
0001F00000
ENDCHAR
STARTCHAR Thorn
ENCODING 222
SWIDTH 604 0
DWIDTH 35 0
BBX 27 42 5 0
BITMAP
F8000000
F8000000
F8000000
F8000000
F8000000
F8000000
F8000000
FFFFC000
FFFFF800
FFFFFE00
FFFFFF00
F800FF80
F8001F80
F8000FC0
F80007C0
F80007E0
F80003E0
F80003E0
F80003E0
F80003E0
F80003E0
F80003E0
F80003E0
F80007E0
F80007C0
F8000FC0
F8001F80
F8007F80
FFFFFF00
FFFFFE00
FFFFF800
FFFFC000
F8000000
F8000000
F8000000
F8000000
F8000000
F8000000
F8000000
F8000000
F8000000
F8000000
ENDCHAR
STARTCHAR germandbls
ENCODING 223
SWIDTH 629 0
DWIDTH 37 0
BBX 29 45 5 -1
BITMAP
007FC000
03FFF000
0FFFFC00
1FFFFE00
3FC07F00
7F001F00
7E000F80
7C000F80
FC000780
F80007C0
F8000FC0
F8007FC0
F801FFC0
F803F800
F807E000
F80F8000
F80F8000
F81F0000
F81F0000
F81F0000
F81F0000
F81F8000
F81FC000
F80FF000
F80FF800
F807FE00
F803FF00
F800FF80
F8003FE0
F8000FE0
F80007F0
F80003F0
F80001F8
F80000F8
F80000F8
F80000F8
F80000F8
F80000F8
F80001F0
F88003F0
F8F80FE0
F8FFFFE0
F8FFFFC0
F8FFFF00
001FF800
ENDCHAR
STARTCHAR agrave
ENCODING 224
SWIDTH 612 0
DWIDTH 36 0
BBX 27 47 3 -1
BITMAP
1F800000
0FC00000
07E00000
03E00000
01F00000
00F80000
007C0000
007C0000
003E0000
001F0000
000F8000
00000000
00000000
00FFC000
0FFFF800
3FFFFC00
3FFFFE00
3F00FF00
38001F80
20000F80
000007C0
000007C0
000003C0
000003E0
000003E0
000003E0
007FFFE0
03FFFFE0
0FFFFFE0
1FFFFFE0
3FE003E0
7F0003E0
7C0003E0
FC0003E0
F80003E0
F80007E0
F80007E0
F80007E0
F8000FE0
FC001FE0
7C001FE0
7E007FE0
7F81FBE0
3FFFF3E0
1FFFE3E0
07FFC3E0
01FE0000
ENDCHAR
STARTCHAR aacute
ENCODING 225
SWIDTH 612 0
DWIDTH 36 0
BBX 27 47 3 -1
BITMAP
00007E00
0000FC00
0001F800
0001F000
0003E000
0007C000
000F8000
000F8000
001F0000
003E0000
007C0000
00000000
00000000
00FFC000
0FFFF800
3FFFFC00
3FFFFE00
3F00FF00
38001F80
20000F80
000007C0
000007C0
000003C0
000003E0
000003E0
000003E0
007FFFE0
03FFFFE0
0FFFFFE0
1FFFFFE0
3FE003E0
7F0003E0
7C0003E0
FC0003E0
F80003E0
F80007E0
F80007E0
F80007E0
F8000FE0
FC001FE0
7C001FE0
7E007FE0
7F81FBE0
3FFFF3E0
1FFFE3E0
07FFC3E0
01FE0000
ENDCHAR
STARTCHAR acircumflex
ENCODING 226
SWIDTH 612 0
DWIDTH 36 0
BBX 27 47 3 -1
BITMAP
001E0000
003F0000
007F8000
007F8000
00FFC000
01F3E000
01E1E000
03C0F000
03C0F000
07807800
0F003C00
00000000
00000000
00FFC000
0FFFF800
3FFFFC00
3FFFFE00
3F00FF00
38001F80
20000F80
000007C0
000007C0
000003C0
000003E0
000003E0
000003E0
007FFFE0
03FFFFE0
0FFFFFE0
1FFFFFE0
3FE003E0
7F0003E0
7C0003E0
FC0003E0
F80003E0
F80007E0
F80007E0
F80007E0
F8000FE0
FC001FE0
7C001FE0
7E007FE0
7F81FBE0
3FFFF3E0
1FFFE3E0
07FFC3E0
01FE0000
ENDCHAR
STARTCHAR atilde
ENCODING 227
SWIDTH 612 0
DWIDTH 36 0
BBX 27 46 3 -1
BITMAP
01F00E00
03F80E00
07FC0E00
07FE1E00
0F0FFC00
0E07FC00
0E03F800
0E01F000
00000000
00000000
00000000
00000000
00FFC000
0FFFF800
3FFFFC00
3FFFFE00
3F00FF00
38001F80
20000F80
000007C0
000007C0
000003C0
000003E0
000003E0
000003E0
007FFFE0
03FFFFE0
0FFFFFE0
1FFFFFE0
3FE003E0
7F0003E0
7C0003E0
FC0003E0
F80003E0
F80007E0
F80007E0
F80007E0
F8000FE0
FC001FE0
7C001FE0
7E007FE0
7F81FBE0
3FFFF3E0
1FFFE3E0
07FFC3E0
01FE0000
ENDCHAR
STARTCHAR adieresis
ENCODING 228
SWIDTH 612 0
DWIDTH 36 0
BBX 27 45 3 -1
BITMAP
07E0FC00
07E0FC00
07E0FC00
07E0FC00
07E0FC00
07E0FC00
00000000
00000000
00000000
00000000
00000000
00FFC000
0FFFF800
3FFFFC00
3FFFFE00
3F00FF00
38001F80
20000F80
000007C0
000007C0
000003C0
000003E0
000003E0
000003E0
007FFFE0
03FFFFE0
0FFFFFE0
1FFFFFE0
3FE003E0
7F0003E0
7C0003E0
FC0003E0
F80003E0
F80007E0
F80007E0
F80007E0
F8000FE0
FC001FE0
7C001FE0
7E007FE0
7F81FBE0
3FFFF3E0
1FFFE3E0
07FFC3E0
01FE0000
ENDCHAR
STARTCHAR aring
ENCODING 229
SWIDTH 612 0
DWIDTH 36 0
BBX 27 52 3 -1
BITMAP
001F8000
007FE000
00FFF000
01F0F800
01C03800
03C03C00
03801C00
03801C00
03801C00
03801C00
03C03C00
01C03800
01F0F800
00FFF000
007FE000
001F8000
00000000
00000000
00FFC000
0FFFF800
3FFFFC00
3FFFFE00
3F00FF00
38001F80
20000F80
000007C0
000007C0
000003C0
000003E0
000003E0
000003E0
007FFFE0
03FFFFE0
0FFFFFE0
1FFFFFE0
3FE003E0
7F0003E0
7C0003E0
FC0003E0
F80003E0
F80007E0
F80007E0
F80007E0
F8000FE0
FC001FE0
7C001FE0
7E007FE0
7F81FBE0
3FFFF3E0
1FFFE3E0
07FFC3E0
01FE0000
ENDCHAR
STARTCHAR ae
ENCODING 230
SWIDTH 981 0
DWIDTH 57 0
BBX 50 34 3 -1
BITMAP
01FF8000FF0000
1FFFF007FFE000
3FFFFC1FFFF000
3FFFFE3FFFFC00
3F00FF7F81FC00
38003FFE007E00
20001FF8003F00
00000FF0001F00
00000FF0000F80
000007E0000F80
000007E0000780
000007E00007C0
000007C00007C0
007FFFC00007C0
03FFFFFFFFFFC0
0FFFFFFFFFFFC0
1FFFFFFFFFFFC0
3FC007FFFFFFC0
7E0007C0000000
7C0007C0000000
FC0007C0000000
F80007C0000000
F8000FE0000000
F8000FE0000000
F8000FF0000000
F8001FF0000000
FC001FF8000000
FC003FFC000080
7E007CFE000380
7F81F87FC03F80
3FFFF03FFFFF80
1FFFE01FFFFF80
0FFFC007FFFE00
01FE0000FFE000
ENDCHAR
STARTCHAR ccedilla
ENCODING 231
SWIDTH 549 0
DWIDTH 32 0
BBX 25 44 3 -11
BITMAP
001FFC00
00FFFF80
01FFFF80
07FFFF80
0FF00F80
1FC00080
1F800000
3F000000
3E000000
7C000000
7C000000
7C000000
F8000000
F8000000
F8000000
F8000000
F8000000
F8000000
F8000000
F8000000
F8000000
F8000000
7C000000
7C000000
7C000000
3E000000
3F000000
1F800000
1FC00080
0FF00F80
07FFFF80
01FFFF80
00FFFF80
001FFC00
0000E000
0000F000
00007000
00007800
00007800
00007800
0040F800
007FF000
007FF000
007FC000
ENDCHAR
STARTCHAR egrave
ENCODING 232
SWIDTH 615 0
DWIDTH 36 0
BBX 29 47 3 -1
BITMAP
07E00000
03F00000
01F80000
00F80000
007C0000
003E0000
001F0000
001F0000
000F8000
0007C000
0003E000
00000000
00000000
001FE000
00FFFC00
01FFFF00
07FFFF80
0FF03FC0
1FC00FC0
1F0007E0
3E0003E0
3E0001F0
7C0001F0
7C0001F0
7C0000F8
F80000F8
F80000F8
FFFFFFF8
FFFFFFF8
FFFFFFF8
FFFFFFF8
F8000000
F8000000
F8000000
F8000000
7C000000
7C000000
7E000000
3E000000
3F000000
1F800010
1FC00070
0FF807F0
07FFFFF0
01FFFFF0
007FFFE0
000FFC00
ENDCHAR
STARTCHAR eacute
ENCODING 233
SWIDTH 615 0
DWIDTH 36 0
BBX 29 47 3 -1
BITMAP
00001F80
00003F00
00007E00
00007C00
0000F800
0001F000
0003E000
0003E000
0007C000
000F8000
001F0000
00000000
00000000
001FE000
00FFFC00
01FFFF00
07FFFF80
0FF03FC0
1FC00FC0
1F0007E0
3E0003E0
3E0001F0
7C0001F0
7C0001F0
7C0000F8
F80000F8
F80000F8
FFFFFFF8
FFFFFFF8
FFFFFFF8
FFFFFFF8
F8000000
F8000000
F8000000
F8000000
7C000000
7C000000
7E000000
3E000000
3F000000
1F800010
1FC00070
0FF807F0
07FFFFF0
01FFFFF0
007FFFE0
000FFC00
ENDCHAR
STARTCHAR ecircumflex
ENCODING 234
SWIDTH 615 0
DWIDTH 36 0
BBX 29 47 3 -1
BITMAP
00078000
000FC000
001FE000
001FE000
003FF000
007CF800
00787800
00F03C00
00F03C00
01E01E00
03C00F00
00000000
00000000
001FE000
00FFFC00
01FFFF00
07FFFF80
0FF03FC0
1FC00FC0
1F0007E0
3E0003E0
3E0001F0
7C0001F0
7C0001F0
7C0000F8
F80000F8
F80000F8
FFFFFFF8
FFFFFFF8
FFFFFFF8
FFFFFFF8
F8000000
F8000000
F8000000
F8000000
7C000000
7C000000
7E000000
3E000000
3F000000
1F800010
1FC00070
0FF807F0
07FFFFF0
01FFFFF0
007FFFE0
000FFC00
ENDCHAR
STARTCHAR edieresis
ENCODING 235
SWIDTH 615 0
DWIDTH 36 0
BBX 29 45 3 -1
BITMAP
01F83F00
01F83F00
01F83F00
01F83F00
01F83F00
01F83F00
00000000
00000000
00000000
00000000
00000000
001FE000
00FFFC00
01FFFF00
07FFFF80
0FF03FC0
1FC00FC0
1F0007E0
3E0003E0
3E0001F0
7C0001F0
7C0001F0
7C0000F8
F80000F8
F80000F8
FFFFFFF8
FFFFFFF8
FFFFFFF8
FFFFFFF8
F8000000
F8000000
F8000000
F8000000
7C000000
7C000000
7E000000
3E000000
3F000000
1F800010
1FC00070
0FF807F0
07FFFFF0
01FFFFF0
007FFFE0
000FFC00
ENDCHAR
STARTCHAR igrave
ENCODING 236
SWIDTH 277 0
DWIDTH 16 0
BBX 14 46 -2 0
BITMAP
FC00
7E00
3F00
1F00
0F80
07C0
03E0
03E0
01F0
00F8
007C
0000
0000
0000
01F0
01F0
01F0
01F0
01F0
01F0
01F0
01F0
01F0
01F0
01F0
01F0
01F0
01F0
01F0
01F0
01F0
01F0
01F0
01F0
01F0
01F0
01F0
01F0
01F0
01F0
01F0
01F0
01F0
01F0
01F0
01F0
ENDCHAR
STARTCHAR iacute
ENCODING 237
SWIDTH 277 0
DWIDTH 16 0
BBX 14 46 4 0
BITMAP
00FC
01F8
03F0
03E0
07C0
0F80
1F00
1F00
3E00
7C00
F800
0000
0000
0000
7C00
7C00
7C00
7C00
7C00
7C00
7C00
7C00
7C00
7C00
7C00
7C00
7C00
7C00
7C00
7C00
7C00
7C00
7C00
7C00
7C00
7C00
7C00
7C00
7C00
7C00
7C00
7C00
7C00
7C00
7C00
7C00
ENDCHAR
STARTCHAR icircumflex
ENCODING 238
SWIDTH 277 0
DWIDTH 16 0
BBX 18 46 -1 0
BITMAP
01E000
03F000
07F800
07F800
0FFC00
1F3E00
1E1E00
3C0F00
3C0F00
780780
F003C0
000000
000000
000000
03E000
03E000
03E000
03E000
03E000
03E000
03E000
03E000
03E000
03E000
03E000
03E000
03E000
03E000
03E000
03E000
03E000
03E000
03E000
03E000
03E000
03E000
03E000
03E000
03E000
03E000
03E000
03E000
03E000
03E000
03E000
03E000
ENDCHAR
STARTCHAR idieresis
ENCODING 239
SWIDTH 277 0
DWIDTH 16 0
BBX 17 44 0 0
BITMAP
FC1F80
FC1F80
FC1F80
FC1F80
FC1F80
FC1F80
000000
000000
000000
000000
000000
000000
07C000
07C000
07C000
07C000
07C000
07C000
07C000
07C000
07C000
07C000
07C000
07C000
07C000
07C000
07C000
07C000
07C000
07C000
07C000
07C000
07C000
07C000
07C000
07C000
07C000
07C000
07C000
07C000
07C000
07C000
07C000
07C000
ENDCHAR
STARTCHAR eth
ENCODING 240
SWIDTH 611 0
DWIDTH 35 0
BBX 29 45 3 -1
BITMAP
03F00000
03F800C0
01FC07C0
00FE3FC0
007FFF00
003FF800
00FFC000
07FFE000
1FF7F000
1F83F800
1C01FC00
0000FE00
00007E00
003FFF00
00FFFF80
03FFFF80
07FFFFC0
0FF01FC0
1FC007E0
3F0003E0
3E0003F0
7E0001F0
7C0001F0
7C0001F0
FC0000F8
F80000F8
F80000F8
F80000F8
F80000F8
F80000F8
F80000F8
F80000F8
F80000F8
F80001F8
7C0001F0
7C0001F0
7E0003F0
3E0003E0
3F0007E0
1F800FC0
0FE03F80
07FFFF00
03FFFE00
00FFF800
003FC000
ENDCHAR
STARTCHAR ntilde
ENCODING 241
SWIDTH 633 0
DWIDTH 37 0
BBX 27 45 5 0
BITMAP
01F00E00
03F80E00
07FC0E00
07FE1E00
0F0FFC00
0E07FC00
0E03F800
0E01F000
00000000
00000000
00000000
00000000
000FE000
F83FFC00
F8FFFE00
F9FFFF00
FBE07F80
FF801F80
FF000FC0
FE0007C0
FC0007C0
FC0003E0
FC0003E0
F80003E0
F80003E0
F80003E0
F80003E0
F80003E0
F80003E0
F80003E0
F80003E0
F80003E0
F80003E0
F80003E0
F80003E0
F80003E0
F80003E0
F80003E0
F80003E0
F80003E0
F80003E0
F80003E0
F80003E0
F80003E0
F80003E0
ENDCHAR
STARTCHAR ograve
ENCODING 242
SWIDTH 611 0
DWIDTH 35 0
BBX 29 47 3 -1
BITMAP
0FC00000
07E00000
03F00000
01F00000
00F80000
007C0000
003E0000
003E0000
001F0000
000F8000
0007C000
00000000
00000000
003FE000
00FFF800
03FFFE00
07FFFF00
0FE07F80
1FC01FC0
3F0007E0
3F0007E0
7E0003F0
7C0001F0
7C0001F0
7C0001F0
F80000F8
F80000F8
F80000F8
F80000F8
F80000F8
F80000F8
F80000F8
F80000F8
F80000F8
F80000F8
7C0001F0
7C0001F0
7C0001F0
7E0003F0
3F0007E0
3F0007E0
1FC01FC0
0FE03F80
07FFFF00
03FFFE00
00FFF800
003FE000
ENDCHAR
STARTCHAR oacute
ENCODING 243
SWIDTH 611 0
DWIDTH 35 0
BBX 29 47 3 -1
BITMAP
00003F00
00007E00
0000FC00
0000F800
0001F000
0003E000
0007C000
0007C000
000F8000
001F0000
003E0000
00000000
00000000
003FE000
00FFF800
03FFFE00
07FFFF00
0FE07F80
1FC01FC0
3F0007E0
3F0007E0
7E0003F0
7C0001F0
7C0001F0
7C0001F0
F80000F8
F80000F8
F80000F8
F80000F8
F80000F8
F80000F8
F80000F8
F80000F8
F80000F8
F80000F8
7C0001F0
7C0001F0
7C0001F0
7E0003F0
3F0007E0
3F0007E0
1FC01FC0
0FE03F80
07FFFF00
03FFFE00
00FFF800
003FE000
ENDCHAR
STARTCHAR ocircumflex
ENCODING 244
SWIDTH 611 0
DWIDTH 35 0
BBX 29 47 3 -1
BITMAP
000F0000
001F8000
003FC000
003FC000
007FE000
00F9F000
00F0F000
01E07800
01E07800
03C03C00
07801E00
00000000
00000000
003FE000
00FFF800
03FFFE00
07FFFF00
0FE07F80
1FC01FC0
3F0007E0
3F0007E0
7E0003F0
7C0001F0
7C0001F0
7C0001F0
F80000F8
F80000F8
F80000F8
F80000F8
F80000F8
F80000F8
F80000F8
F80000F8
F80000F8
F80000F8
7C0001F0
7C0001F0
7C0001F0
7E0003F0
3F0007E0
3F0007E0
1FC01FC0
0FE03F80
07FFFF00
03FFFE00
00FFF800
003FE000
ENDCHAR
STARTCHAR otilde
ENCODING 245
SWIDTH 611 0
DWIDTH 35 0
BBX 29 46 3 -1
BITMAP
00F80700
01FC0700
03FE0700
03FF0F00
0787FE00
0703FE00
0701FC00
0700F800
00000000
00000000
00000000
00000000
003FE000
00FFF800
03FFFE00
07FFFF00
0FE07F80
1FC01FC0
3F0007E0
3F0007E0
7E0003F0
7C0001F0
7C0001F0
7C0001F0
F80000F8
F80000F8
F80000F8
F80000F8
F80000F8
F80000F8
F80000F8
F80000F8
F80000F8
F80000F8
7C0001F0
7C0001F0
7C0001F0
7E0003F0
3F0007E0
3F0007E0
1FC01FC0
0FE03F80
07FFFF00
03FFFE00
00FFF800
003FE000
ENDCHAR
STARTCHAR odieresis
ENCODING 246
SWIDTH 611 0
DWIDTH 35 0
BBX 29 45 3 -1
BITMAP
03F07E00
03F07E00
03F07E00
03F07E00
03F07E00
03F07E00
00000000
00000000
00000000
00000000
00000000
003FE000
00FFF800
03FFFE00
07FFFF00
0FE07F80
1FC01FC0
3F0007E0
3F0007E0
7E0003F0
7C0001F0
7C0001F0
7C0001F0
F80000F8
F80000F8
F80000F8
F80000F8
F80000F8
F80000F8
F80000F8
F80000F8
F80000F8
F80000F8
7C0001F0
7C0001F0
7C0001F0
7E0003F0
3F0007E0
3F0007E0
1FC01FC0
0FE03F80
07FFFF00
03FFFE00
00FFF800
003FE000
ENDCHAR
STARTCHAR divide
ENCODING 247
SWIDTH 837 0
DWIDTH 49 0
BBX 37 29 6 4
BITMAP
0001FC0000
0001FC0000
0001FC0000
0001FC0000
0001FC0000
0001FC0000
0001FC0000
0000000000
0000000000
0000000000
0000000000
0000000000
FFFFFFFFF8
FFFFFFFFF8
FFFFFFFFF8
FFFFFFFFF8
FFFFFFFFF8
0000000000
0000000000
0000000000
0000000000
0000000000
0001FC0000
0001FC0000
0001FC0000
0001FC0000
0001FC0000
0001FC0000
0001FC0000
ENDCHAR
STARTCHAR oslash
ENCODING 248
SWIDTH 611 0
DWIDTH 35 0
BBX 31 38 2 -3
BITMAP
00000008
0000001C
000FF01E
007FFE3C
01FFFFF8
03FFFFF8
07F03FF0
0FC00FE0
0F8003F0
1F8007F0
1F000FF8
3E001FF8
3E003EF8
3E003CFC
7C007C7C
7C00F87C
7C01F07C
7C03E07C
7C07C07C
7C07807C
7C0F807C
7C1F007C
7C3E007C
7C7C007C
7E7800F8
3EF800F8
3FF000F8
3FE001F0
1FC003F0
1F8003E0
0FC00FE0
1FF01FC0
3FFFFF80
3FFFFF00
78FFFC00
F01FF000
70000000
20000000
ENDCHAR
STARTCHAR ugrave
ENCODING 249
SWIDTH 633 0
DWIDTH 37 0
BBX 27 47 5 -1
BITMAP
3F000000
1F800000
0FC00000
07C00000
03E00000
01F00000
00F80000
00F80000
007C0000
003E0000
001F0000
00000000
00000000
00000000
F80003E0
F80003E0
F80003E0
F80003E0
F80003E0
F80003E0
F80003E0
F80003E0
F80003E0
F80003E0
F80003E0
F80003E0
F80003E0
F80003E0
F80003E0
F80003E0
F80003E0
F80003E0
F80003E0
F80003E0
F80003E0
F80003E0
F80007E0
F80007E0
7C0007E0
7C000FE0
7E001FE0
3F003FE0
3FC0FBE0
1FFFF3E0
0FFFE3E0
07FFC3E0
01FE0000
ENDCHAR
STARTCHAR uacute
ENCODING 250
SWIDTH 633 0
DWIDTH 37 0
BBX 27 47 5 -1
BITMAP
0000FC00
0001F800
0003F000
0003E000
0007C000
000F8000
001F0000
001F0000
003E0000
007C0000
00F80000
00000000
00000000
00000000
F80003E0
F80003E0
F80003E0
F80003E0
F80003E0
F80003E0
F80003E0
F80003E0
F80003E0
F80003E0
F80003E0
F80003E0
F80003E0
F80003E0
F80003E0
F80003E0
F80003E0
F80003E0
F80003E0
F80003E0
F80003E0
F80003E0
F80007E0
F80007E0
7C0007E0
7C000FE0
7E001FE0
3F003FE0
3FC0FBE0
1FFFF3E0
0FFFE3E0
07FFC3E0
01FE0000
ENDCHAR
STARTCHAR ucircumflex
ENCODING 251
SWIDTH 633 0
DWIDTH 37 0
BBX 27 47 5 -1
BITMAP
003C0000
007E0000
00FF0000
00FF0000
01FF8000
03E7C000
03C3C000
0781E000
0781E000
0F00F000
1E007800
00000000
00000000
00000000
F80003E0
F80003E0
F80003E0
F80003E0
F80003E0
F80003E0
F80003E0
F80003E0
F80003E0
F80003E0
F80003E0
F80003E0
F80003E0
F80003E0
F80003E0
F80003E0
F80003E0
F80003E0
F80003E0
F80003E0
F80003E0
F80003E0
F80007E0
F80007E0
7C0007E0
7C000FE0
7E001FE0
3F003FE0
3FC0FBE0
1FFFF3E0
0FFFE3E0
07FFC3E0
01FE0000
ENDCHAR
STARTCHAR udieresis
ENCODING 252
SWIDTH 633 0
DWIDTH 37 0
BBX 27 45 5 -1
BITMAP
0FC1F800
0FC1F800
0FC1F800
0FC1F800
0FC1F800
0FC1F800
00000000
00000000
00000000
00000000
00000000
00000000
F80003E0
F80003E0
F80003E0
F80003E0
F80003E0
F80003E0
F80003E0
F80003E0
F80003E0
F80003E0
F80003E0
F80003E0
F80003E0
F80003E0
F80003E0
F80003E0
F80003E0
F80003E0
F80003E0
F80003E0
F80003E0
F80003E0
F80007E0
F80007E0
7C0007E0
7C000FE0
7E001FE0
3F003FE0
3FC0FBE0
1FFFF3E0
0FFFE3E0
07FFC3E0
01FE0000
ENDCHAR
STARTCHAR yacute
ENCODING 253
SWIDTH 591 0
DWIDTH 34 0
BBX 31 58 2 -12
BITMAP
00001F80
00003F00
00007E00
00007C00
0000F800
0001F000
0003E000
0003E000
0007C000
000F8000
001F0000
00000000
00000000
00000000
FC00007E
7C00007C
7C00007C
7E0000FC
3E0000F8
3F0001F8
1F0001F0
1F0001F0
1F8003F0
0F8003E0
0FC007E0
07C007C0
07E007C0
03E00FC0
03E00F80
03F01F80
01F01F00
01F81F00
00F83F00
00F83E00
00FC7E00
007C7E00
007E7C00
003EFC00
003EF800
003FF800
001FF800
001FF000
000FF000
000FE000
0007E000
0007E000
0007C000
000FC000
000F8000
000F8000
001F8000
001F0000
003F0000
007E0000
1FFC0000
1FFC0000
1FF80000
1FE00000
ENDCHAR
STARTCHAR thorn
ENCODING 254
SWIDTH 634 0
DWIDTH 37 0
BBX 28 56 5 -12
BITMAP
F8000000
F8000000
F8000000
F8000000
F8000000
F8000000
F8000000
F8000000
F8000000
F8000000
F8000000
F81FE000
F87FF800
F8FFFC00
F9FFFE00
FBE07F00
FF801F80
FF000FC0
FE0007C0
FE0007E0
FC0003E0
FC0003E0
FC0003E0
F80001F0
F80001F0
F80001F0
F80001F0
F80001F0
F80001F0
F80001F0
F80001F0
F80001F0
F80001F0
FC0003E0
FC0003E0
FC0003E0
FE0007E0
FE0007C0
FF000FC0
FF801F80
FBE07F00
F9FFFE00
F8FFFC00
F87FF800
F81FE000
F8000000
F8000000
F8000000
F8000000
F8000000
F8000000
F8000000
F8000000
F8000000
F8000000
F8000000
ENDCHAR
STARTCHAR ydieresis
ENCODING 255
SWIDTH 591 0
DWIDTH 34 0
BBX 31 56 2 -12
BITMAP
01F83F00
01F83F00
01F83F00
01F83F00
01F83F00
01F83F00
00000000
00000000
00000000
00000000
00000000
00000000
FC00007E
7C00007C
7C00007C
7E0000FC
3E0000F8
3F0001F8
1F0001F0
1F0001F0
1F8003F0
0F8003E0
0FC007E0
07C007C0
07E007C0
03E00FC0
03E00F80
03F01F80
01F01F00
01F81F00
00F83F00
00F83E00
00FC7E00
007C7E00
007E7C00
003EFC00
003EF800
003FF800
001FF800
001FF000
000FF000
000FE000
0007E000
0007E000
0007C000
000FC000
000F8000
000F8000
001F8000
001F0000
003F0000
007E0000
1FFC0000
1FFC0000
1FF80000
1FE00000
ENDCHAR
STARTCHAR .notdef
ENCODING -1
SWIDTH 600 0
DWIDTH 35 0
BBX 29 51 3 -10
BITMAP
FFFFFFF8
FFFFFFF8
FFFFFFF8
E0000038
E0000038
E0000038
E0000038
E0000038
E0000038
E0000038
E0000038
E0000038
E0000038
E0000038
E0000038
E0000038
E0000038
E0000038
E0000038
E0000038
E0000038
E0000038
E0000038
E0000038
E0000038
E0000038
E0000038
E0000038
E0000038
E0000038
E0000038
E0000038
E0000038
E0000038
E0000038
E0000038
E0000038
E0000038
E0000038
E0000038
E0000038
E0000038
E0000038
E0000038
E0000038
E0000038
E0000038
E0000038
FFFFFFF8
FFFFFFF8
FFFFFFF8
ENDCHAR
STARTCHAR .null
ENCODING -1
SWIDTH 0 0
DWIDTH 0 0
BBX 1 1 0 0
BITMAP
00
ENDCHAR
STARTCHAR nonmarkingreturn
ENCODING -1
SWIDTH 317 0
DWIDTH 18 0
BBX 1 1 0 0
BITMAP
00
ENDCHAR
STARTCHAR dagger
ENCODING -1
SWIDTH 500 0
DWIDTH 29 0
BBX 25 48 2 -6
BITMAP
003E0000
003E0000
003E0000
003E0000
003E0000
003E0000
003E0000
003E0000
003E0000
003E0000
003E0000
003E0000
FFFFFF80
FFFFFF80
FFFFFF80
FFFFFF80
003E0000
003E0000
003E0000
003E0000
003E0000
003E0000
003E0000
003E0000
003E0000
003E0000
003E0000
003E0000
003E0000
003E0000
003E0000
003E0000
003E0000
003E0000
003E0000
003E0000
003E0000
003E0000
003E0000
003E0000
003E0000
003E0000
003E0000
003E0000
003E0000
003E0000
003E0000
003E0000
ENDCHAR
STARTCHAR bullet
ENCODING -1
SWIDTH 589 0
DWIDTH 34 0
BBX 17 17 9 13
BITMAP
03F000
0FF800
3FFE00
3FFE00
7FFF00
FFFF00
FFFF80
FFFF80
FFFF80
FFFF80
FFFF80
FFFF00
7FFF00
3FFE00
3FFE00
0FF800
03F000
ENDCHAR
STARTCHAR trademark
ENCODING -1
SWIDTH 1000 0
DWIDTH 58 0
BBX 37 16 8 26
BITMAP
FFFE3E00F8
FFFE3F01F8
FFFE3F01F8
03803F83F8
03803BC7B8
038039C738
038038EF38
038038FE38
0380387C38
0380383838
0380383838
0380380038
0380380038
0380380038
0380380038
0380380038
ENDCHAR
STARTCHAR notequal
ENCODING -1
SWIDTH 837 0
DWIDTH 49 0
BBX 36 35 6 1
BITMAP
0000000800
0000000E00
0000001F00
0000003F00
0000007E00
000000FC00
000000FC00
000001F800
000003F000
FFFFFFFFF0
FFFFFFFFF0
FFFFFFFFF0
FFFFFFFFF0
FFFFFFFFF0
00007E0000
00007C0000
0000FC0000
0001F80000
0003F00000
0007E00000
0007E00000
FFFFFFFFF0
FFFFFFFFF0
FFFFFFFFF0
FFFFFFFFF0
FFFFFFFFF0
00FC000000
01F8000000
03F0000000
03E0000000
07E0000000
0FC0000000
0F80000000
0700000000
0200000000
ENDCHAR
STARTCHAR infinity
ENCODING -1
SWIDTH 833 0
DWIDTH 48 0
BBX 36 22 6 6
BITMAP
03E000FC00
0FF803FF00
1FFC07FF80
3FFE0FFFC0
7FFF0FFFC0
7C1F1F81E0
7007BF00E0
E003BE0070
E001FC0030
C000FC0030
C000F80030
C001F00030
C001F00030
C003F00030
E003F80070
6007DC00E0
700F9E01E0
3C3F8FCFE0
3FFF07FFC0
1FFE03FF80
0FFC01FF00
03F0007C00
ENDCHAR
STARTCHAR lessequal
ENCODING -1
SWIDTH 837 0
DWIDTH 49 0
BBX 36 34 6 0
BITMAP
0000000030
00000001F0
0000001FF0
000000FFF0
000007FFF0
00007FFFE0
0003FFFF00
003FFFF000
01FFFF8000
0FFFF80000
FFFFC00000
FFFE000000
FFE0000000
FFE0000000
FFFE000000
FFFFC00000
0FFFF80000
01FFFF8000
003FFFF000
0003FFFF00
00007FFFE0
000007FFF0
000000FFF0
0000001FF0
00000001F0
0000000030
0000000000
0000000000
0000000000
FFFFFFFFF0
FFFFFFFFF0
FFFFFFFFF0
FFFFFFFFF0
FFFFFFFFF0
ENDCHAR
STARTCHAR greaterequal
ENCODING -1
SWIDTH 837 0
DWIDTH 49 0
BBX 36 34 6 0
BITMAP
C000000000
F800000000
FF80000000
FFF0000000
FFFE000000
7FFFE00000
0FFFFC0000
00FFFFC000
001FFFF800
0001FFFF00
00003FFFF0
000007FFF0
0000007FF0
0000007FF0
000007FFF0
00003FFFF0
0001FFFF00
001FFFF800
00FFFFC000
0FFFFC0000
7FFFE00000
FFFE000000
FFF0000000
FF80000000
F800000000
C000000000
0000000000
0000000000
0000000000
FFFFFFFFF0
FFFFFFFFF0
FFFFFFFFF0
FFFFFFFFF0
FFFFFFFFF0
ENDCHAR
STARTCHAR partialdiff
ENCODING -1
SWIDTH 517 0
DWIDTH 30 0
BBX 24 38 3 0
BITMAP
003F00
00FFC0
01FFE0
03F870
03F038
03C03C
00001C
00001E
00001E
00001E
00001E
00001F
00001F
00001F
00001F
00FC1F
07FF1F
0FC39F
1F80DF
3F00FF
3E007F
7E007F
7C007E
FC007E
FC007E
F8007E
F8007C
F8007C
F800FC
F800F8
F800F8
7801F0
7801E0
3C03E0
3C07C0
1F0F80
07FE00
01F800
ENDCHAR
STARTCHAR summation
ENCODING -1
SWIDTH 673 0
DWIDTH 39 0
BBX 37 53 1 -11
BITMAP
7FFFFFFFF0
7FFFFFFFF0
7FFFFFFFF0
7FFFFFFFF0
7FFFFFFFF0
7FC0000000
3FE0000000
1FF0000000
0FF0000000
07F8000000
03FC000000
01FE000000
00FF000000
007F800000
003FC00000
001FE00000
000FF00000
0007F80000
0007FC0000
0003FE0000
0001FE0000
0000FF0000
00007F8000
00003FC000
00001FE000
00000FF000
00000FF000
00001FE000
00003FC000
00007F8000
0000FF0000
0001FE0000
0001FC0000
0003F80000
0007F00000
000FF00000
001FE00000
003FC00000
007F800000
00FF000000
01FE000000
03FC000000
03F8000000
07F8000000
0FF0000000
1FE0000000
3FC0000000
7F80000000
FFFFFFFFF8
FFFFFFFFF8
FFFFFFFFF8
FFFFFFFFF8
FFFFFFFFF8
ENDCHAR
STARTCHAR product
ENCODING -1
SWIDTH 756 0
DWIDTH 44 0
BBX 35 53 4 -11
BITMAP
FFFFFFFFE0
FFFFFFFFE0
FFFFFFFFE0
FFFFFFFFE0
F8000003E0
F8000003E0
F8000003E0
F8000003E0
F8000003E0
F8000003E0
F8000003E0
F8000003E0
F8000003E0
F8000003E0
F8000003E0
F8000003E0
F8000003E0
F8000003E0
F8000003E0
F8000003E0
F8000003E0
F8000003E0
F8000003E0
F8000003E0
F8000003E0
F8000003E0
F8000003E0
F8000003E0
F8000003E0
F8000003E0
F8000003E0
F8000003E0
F8000003E0
F8000003E0
F8000003E0
F8000003E0
F8000003E0
F8000003E0
F8000003E0
F8000003E0
F8000003E0
F8000003E0
F8000003E0
F8000003E0
F8000003E0
F8000003E0
F8000003E0
F8000003E0
F8000003E0
F8000003E0
F8000003E0
F8000003E0
F8000003E0
ENDCHAR
STARTCHAR pi
ENCODING -1
SWIDTH 588 0
DWIDTH 34 0
BBX 35 30 -1 0
BITMAP
07FFFFFFE0
1FFFFFFFE0
3FFFFFFFC0
7FFFFFFFC0
7C7C00F800
787C01F800
F87C01F000
F87C01F000
00FC01F000
00F801F000
00F803E000
00F803E000
00F803E000
01F803E000
01F003E000
01F007C000
01F007C000
03F007C000
03E007C000
03E007C000
03E00F8000
03E00F8000
07E00F8000
07C00F8000
07C00F8000
07C00FC000
07C00FFE00
0FC007FC00
0F8003FC00
0F8001FC00
ENDCHAR
STARTCHAR integral
ENCODING -1
SWIDTH 520 0
DWIDTH 30 0
BBX 27 54 1 -10
BITMAP
00001F00
00007FC0
0000FFE0
0001EFE0
0001CFE0
0003CFE0
0003C7E0
000783C0
00078000
00078000
00078000
000F8000
000F8000
000F8000
000F0000
000F0000
000F0000
000F0000
001F0000
001F0000
001F0000
001F0000
001F0000
001F0000
001F0000
001F0000
001F0000
001F0000
001F0000
001F0000
001F0000
001F0000
001F0000
001F0000
001F0000
001F0000
001F0000
001E0000
001E0000
001E0000
003E0000
003E0000
003E0000
003C0000
003C0000
003C0000
003C0000
78380000
FC780000
FE700000
FEF00000
FFE00000
7FC00000
3F000000
ENDCHAR
STARTCHAR Omega
ENCODING -1
SWIDTH 764 0
DWIDTH 44 0
BBX 40 43 2 0
BITMAP
0000FF8000
0007FFF000
001FFFFC00
007FFFFF00
00FF807F80
01FC001FC0
03F00007E0
07E00003F0
0FC00001F8
0F800000F8
1F0000007C
1F0000007C
3E0000003E
3E0000003E
3E0000003E
7C0000001F
7C0000001F
7C0000001F
7C0000001F
7C0000001F
7C0000001F
7C0000001F
7C0000001F
7C0000001F
7C0000001F
7E0000003F
3E0000003E
3E0000003E
3F0000007E
3F0000007E
1F800000FC
1F800000FC
0FC00001F8
0FE00003F8
07F00007F0
03F8000FE0
01FC001FC0
00FE003F80
007F80FF00
FFFFC1FFFF
FFFFC1FFFF
FFFFC1FFFF
FFFFC1FFFF
ENDCHAR
STARTCHAR radical
ENCODING -1
SWIDTH 637 0
DWIDTH 37 0
BBX 35 48 2 -1
BITMAP
00000007E0
00000007E0
00000007E0
0000000F00
0000000E00
0000000E00
0000001C00
0000001C00
0000001C00
0000003800
0000003800
0000007800
0000007000
0000007000
000000F000
000000E000
000000E000
000001C000
000001C000
000001C000
0700038000
3F80038000
FF80078000
FF80070000
07C0070000
07C00E0000
07C00E0000
03E00E0000
03E01C0000
03F01C0000
01F03C0000
01F0380000
00F8380000
00F8700000
00F8700000
007C700000
007CE00000
007CE00000
003EE00000
003FC00000
003FC00000
001F800000
001F800000
000F800000
000F000000
000F000000
0007000000
0006000000
ENDCHAR
STARTCHAR florin
ENCODING -1
SWIDTH 636 0
DWIDTH 37 0
BBX 35 56 1 -12
BITMAP
0000003F80
000000FFE0
000001FFE0
000003FFE0
000007F020
00000FC000
00000F8000
00001F8000
00001F0000
00001F0000
00001F0000
00003F0000
00003E0000
00003E0000
00003E0000
00003E0000
00003C0000
00007C0000
00007C0000
00007C0000
007FFFFC00
007FFFFC00
007FFFFC00
007FFFFC00
0000F80000
0000F80000
0000F00000
0001F00000
0001F00000
0001F00000
0001F00000
0001F00000
0003E00000
0003E00000
0003E00000
0003E00000
0003E00000
0007C00000
0007C00000
0007C00000
0007C00000
0007C00000
000FC00000
000F800000
000F800000
000F800000
000F800000
001F000000
001F000000
003F000000
007E000000
C0FE000000
FFFC000000
FFF8000000
FFF0000000
7FC0000000
ENDCHAR
STARTCHAR approxequal
ENCODING -1
SWIDTH 837 0
DWIDTH 49 0
BBX 36 20 6 8
BITMAP
01FC000010
0FFF800070
1FFFF000F0
7FFFFE07F0
FFFFFFFFF0
FE07FFFFE0
F000FFFF80
E0001FFF00
800003F800
0000000000
0000000000
01FC000010
0FFF800070
1FFFF000F0
7FFFFE07F0
FFFFFFFFF0
FE07FFFFE0
F000FFFF80
E0001FFF00
800003F800
ENDCHAR
STARTCHAR Delta
ENCODING -1
SWIDTH 668 0
DWIDTH 39 0
BBX 39 42 0 0
BITMAP
0000FE0000
0000FE0000
0001FF0000
0001FF0000
0003FF0000
0003FF8000
0003EF8000
0007EFC000
0007CFC000
0007C7C000
000FC7E000
000F87E000
001F83E000
001F83F000
001F01F000
003F01F800
003E01F800
007E00F800
007E00FC00
007C007C00
00FC007E00
00F8007E00
00F8003E00
01F8003F00
01F0003F00
03F0001F80
03F0001F80
03E0000F80
07E0000FC0
07C0000FC0
0FC00007E0
0FC00007E0
0F800003E0
1F800003F0
1F800003F0
3F000001F0
3F000001F8
3FFFFFFFF8
7FFFFFFFFC
7FFFFFFFFC
7FFFFFFFFC
FFFFFFFFFE
ENDCHAR
STARTCHAR ellipsis
ENCODING -1
SWIDTH 1000 0
DWIDTH 58 0
BBX 43 7 7 0
BITMAP
F8001F0003E0
F8001F0003E0
F8001F0003E0
F8001F0003E0
F8001F0003E0
F8001F0003E0
F8001F0003E0
ENDCHAR
STARTCHAR OE
ENCODING -1
SWIDTH 1069 0
DWIDTH 62 0
BBX 55 42 3 0
BITMAP
00003FFFFFFFFC
0003FFFFFFFFFC
001FFFFFFFFFFC
007FFFFFFFFFFC
01FFC00F800000
03FE000F800000
07F0000F800000
0FE0000F800000
1F80000F800000
1F80000F800000
3F00000F800000
3E00000F800000
7E00000F800000
7C00000F800000
7C00000F800000
FC00000F800000
F800000F800000
F800000FFFFFFC
F800000FFFFFFC
F800000FFFFFFC
F800000FFFFFFC
F800000F800000
F800000F800000
F800000F800000
F800000F800000
F800000F800000
FC00000F800000
7C00000F800000
7C00000F800000
7E00000F800000
3E00000F800000
3F00000F800000
1F80000F800000
1FC0000F800000
0FE0000F800000
07F0000F800000
03FC000F800000
01FFC00F800000
007FFFFFFFFFFE
001FFFFFFFFFFE
0007FFFFFFFFFE
00003FFFFFFFFE
ENDCHAR
STARTCHAR oe
ENCODING -1
SWIDTH 1022 0
DWIDTH 59 0
BBX 53 34 3 -1
BITMAP
001FE0001FE000
00FFFC00FFFC00
03FFFE03FFFE00
07FFFF07FFFF80
0FE07F8FF03FC0
1FC01FDFC00FC0
3F0007FF0007E0
3F0007FE0003E0
7E0003FE0001F0
7C0001FC0001F0
7C0001FC0000F0
7C0001FC0000F8
F80000F80000F8
F80000F80000F8
F80000FFFFFFF8
F80000FFFFFFF8
F80000FFFFFFF8
F80000FFFFFFF8
F80000F8000000
F80000F8000000
F80000F8000000
F80000F8000000
7C0001FC000000
7C0001FC000000
7C0001FE000000
7E0003FE000000
3F0007FF000000
3F0007FF800010
1FC01FDFC00070
0FE03F8FF807F0
07FFFF87FFFFF0
03FFFE03FFFFF0
00FFFC00FFFFC0
003FE0000FFC00
ENDCHAR
STARTCHAR endash
ENCODING -1
SWIDTH 500 0
DWIDTH 29 0
BBX 29 4 0 14
BITMAP
FFFFFFF8
FFFFFFF8
FFFFFFF8
FFFFFFF8
ENDCHAR
STARTCHAR emdash
ENCODING -1
SWIDTH 1000 0
DWIDTH 58 0
BBX 58 4 0 14
BITMAP
FFFFFFFFFFFFFFC0
FFFFFFFFFFFFFFC0
FFFFFFFFFFFFFFC0
FFFFFFFFFFFFFFC0
ENDCHAR
STARTCHAR quotedblleft
ENCODING -1
SWIDTH 518 0
DWIDTH 30 0
BBX 18 14 5 28
BITMAP
1E03C0
3E07C0
3C0780
3C0780
7C0F80
7C0F80
7C0F80
780F00
F81F00
F81F00
F81F00
F81F00
F81F00
F81F00
ENDCHAR
STARTCHAR quotedblright
ENCODING -1
SWIDTH 518 0
DWIDTH 30 0
BBX 18 14 5 28
BITMAP
3E07C0
3E07C0
3E07C0
3E07C0
3E07C0
3E07C0
3C0780
7C0F80
7C0F80
780F00
780F00
780F00
F81F00
F01E00
ENDCHAR
STARTCHAR quoteleft
ENCODING -1
SWIDTH 317 0
DWIDTH 18 0
BBX 7 14 5 28
BITMAP
1E
3E
3C
3C
7C
7C
7C
78
F8
F8
F8
F8
F8
F8
ENDCHAR
STARTCHAR quoteright
ENCODING -1
SWIDTH 317 0
DWIDTH 18 0
BBX 8 14 5 28
BITMAP
3F
3F
3F
3F
3F
3F
3E
7E
7C
7C
78
78
F8
F0
ENDCHAR
STARTCHAR lozenge
ENCODING -1
SWIDTH 494 0
DWIDTH 29 0
BBX 28 58 0 -13
BITMAP
00060000
00060000
000F0000
000F0000
001F8000
001F8000
003FC000
0039C000
0039C000
0070E000
0070E000
00E07000
00E07000
01C03800
01C03800
03801C00
03801C00
07801E00
07000E00
0F000F00
0E000700
1E000780
1C000380
1C000380
380001C0
380001C0
700000E0
700000E0
E0000070
F00000F0
700000E0
780001E0
380001C0
380001C0
1C000380
1C000380
0E000700
0E000700
0F000F00
07000E00
07801E00
03801C00
03C03C00
01C03800
01E07800
00E07000
00F0F000
0070E000
0070E000
0039C000
0039C000
001FC000
001F8000
001F8000
000F0000
000F0000
00060000
00060000
ENDCHAR
STARTCHAR Ydieresis
ENCODING -1
SWIDTH 610 0
DWIDTH 35 0
BBX 35 54 0 0
BITMAP
007E0FC000
007E0FC000
007E0FC000
007E0FC000
007E0FC000
007E0FC000
0000000000
0000000000
0000000000
0000000000
0000000000
0000000000
FC000007E0
7E00000FC0
3F00001F80
3F00001F80
1F80003F00
0FC0007E00
0FC0007E00
07E000FC00
03F001F800
03F803F800
01F803F000
00FC07E000
007E0FC000
007E0FC000
003F1F8000
001FBF0000
001FBF0000
000FFE0000
0007FC0000
0007FC0000
0003F80000
0001F00000
0001F00000
0001F00000
0001F00000
0001F00000
0001F00000
0001F00000
0001F00000
0001F00000
0001F00000
0001F00000
0001F00000
0001F00000
0001F00000
0001F00000
0001F00000
0001F00000
0001F00000
0001F00000
0001F00000
0001F00000
ENDCHAR
STARTCHAR fraction
ENCODING -1
SWIDTH 166 0
DWIDTH 10 0
BBX 31 44 -11 -1
BITMAP
0000003E
0000007C
0000007C
000000F8
000000F0
000001F0
000003E0
000003E0
000007C0
00000780
00000F80
00001F00
00001F00
00003E00
00003C00
00007C00
0000F800
0000F800
0001F000
0001E000
0003E000
0007C000
0007C000
000F8000
000F0000
001F0000
003E0000
003E0000
007C0000
00780000
00F80000
01F00000
01F00000
03E00000
03C00000
07C00000
0F800000
0F800000
1F000000
1E000000
3E000000
7C000000
7C000000
F8000000
ENDCHAR
STARTCHAR guilsinglleft
ENCODING -1
SWIDTH 399 0
DWIDTH 23 0
BBX 13 26 4 4
BITMAP
0008
0018
0038
0078
00F8
01F8
03F0
07E0
0FC0
1F80
7E00
FC00
F800
F800
FC00
7E00
1F80
0FC0
07E0
03F0
01F8
00F8
0078
0038
0018
0008
ENDCHAR
STARTCHAR guilsinglright
ENCODING -1
SWIDTH 399 0
DWIDTH 23 0
BBX 13 26 5 4
BITMAP
8000
C000
E000
F000
F800
FC00
7E00
3F00
1F80
0FC0
03F0
01F8
00F8
00F8
01F8
03F0
0FC0
1F80
3F00
7E00
FC00
F800
F000
E000
C000
8000
ENDCHAR
STARTCHAR fi
ENCODING -1
SWIDTH 629 0
DWIDTH 37 0
BBX 30 44 1 0
BITMAP
001FF07C
007FF07C
01FFF07C
01FFF07C
03F0007C
03E0007C
07C0007C
07C00000
07C00000
07C00000
07C00000
07C00000
FFFFFFFC
FFFFFFFC
FFFFFFFC
FFFFFFFC
07C0007C
07C0007C
07C0007C
07C0007C
07C0007C
07C0007C
07C0007C
07C0007C
07C0007C
07C0007C
07C0007C
07C0007C
07C0007C
07C0007C
07C0007C
07C0007C
07C0007C
07C0007C
07C0007C
07C0007C
07C0007C
07C0007C
07C0007C
07C0007C
07C0007C
07C0007C
07C0007C
07C0007C
ENDCHAR
STARTCHAR fl
ENCODING -1
SWIDTH 629 0
DWIDTH 37 0
BBX 30 44 1 0
BITMAP
001FFFFC
007FFFFC
01FFFFFC
03FFFFFC
03F0007C
03E0007C
07C0007C
07C0007C
07C0007C
07C0007C
07C0007C
07C0007C
FFFFE07C
FFFFE07C
FFFFE07C
FFFFE07C
07C0007C
07C0007C
07C0007C
07C0007C
07C0007C
07C0007C
07C0007C
07C0007C
07C0007C
07C0007C
07C0007C
07C0007C
07C0007C
07C0007C
07C0007C
07C0007C
07C0007C
07C0007C
07C0007C
07C0007C
07C0007C
07C0007C
07C0007C
07C0007C
07C0007C
07C0007C
07C0007C
07C0007C
ENDCHAR
STARTCHAR daggerdbl
ENCODING -1
SWIDTH 500 0
DWIDTH 29 0
BBX 25 48 2 -6
BITMAP
003E0000
003E0000
003E0000
003E0000
003E0000
003E0000
003E0000
003E0000
003E0000
003E0000
003E0000
003E0000
FFFFFF80
FFFFFF80
FFFFFF80
FFFFFF80
003E0000
003E0000
003E0000
003E0000
003E0000
003E0000
003E0000
003E0000
003E0000
003E0000
003E0000
003E0000
003E0000
003E0000
003E0000
003E0000
FFFFFF80
FFFFFF80
FFFFFF80
FFFFFF80
003E0000
003E0000
003E0000
003E0000
003E0000
003E0000
003E0000
003E0000
003E0000
003E0000
003E0000
003E0000
ENDCHAR
STARTCHAR quotesinglbase
ENCODING -1
SWIDTH 317 0
DWIDTH 18 0
BBX 7 14 5 -7
BITMAP
3E
3E
3E
3E
3E
3E
3C
7C
7C
78
78
78
F8
F0
ENDCHAR
STARTCHAR quotedblbase
ENCODING -1
SWIDTH 518 0
DWIDTH 30 0
BBX 18 14 5 -7
BITMAP
3E07C0
3E07C0
3E07C0
3E07C0
3E07C0
3E07C0
3C0780
7C0F80
7C0F80
780F00
780F00
780F00
F81F00
F01E00
ENDCHAR
STARTCHAR perthousand
ENCODING -1
SWIDTH 1341 0
DWIDTH 78 0
BBX 72 44 3 -1
BITMAP
01F800001F00000000
0FFE00003E00000000
1FFF80003C00000000
3FFFC0007C00000000
3F0FC0007800000000
7E07E000F800000000
7C03E001F000000000
FC03F001E000000000
F801F003E000000000
F801F003C000000000
F801F007C000000000
F801F00F8000000000
F801F00F0000000000
F801F01F0000000000
F801F01E0000000000
FC03F03E0000000000
7C03E07C0000000000
7E07E07C0000000000
3F0FC0F80000000000
3FFFC0F00000000000
1FFF81F00000000000
0FFE03E00FC0001F80
01F803E03FF0007FE0
000007C0FFFC01FFF8
00000781FFFE03FFFC
00000F81F87E03F0FC
00000F03F03F07E07E
00001F03E01F07C03E
00003E07E01F8FC03F
00003C07C00F8F801F
00007C07C00F8F801F
00007807C00F8F801F
0000F807C00F8F801F
0001F007C00F8F801F
0001E007C00F8F801F
0003E007C00F8F801F
0003C007E01F8FC03F
0007C003E01F07C03E
000F8003F03F07E07E
000F0001F87E03F0FC
001F0001FFFE03FFFC
001E0000FFFC01FFF8
003E00007FF800FFF0
007C00000FC0001F80
ENDCHAR
STARTCHAR dotlessi
ENCODING -1
SWIDTH 277 0
DWIDTH 16 0
BBX 5 32 5 0
BITMAP
F8
F8
F8
F8
F8
F8
F8
F8
F8
F8
F8
F8
F8
F8
F8
F8
F8
F8
F8
F8
F8
F8
F8
F8
F8
F8
F8
F8
F8
F8
F8
F8
ENDCHAR
STARTCHAR circumflex
ENCODING -1
SWIDTH 500 0
DWIDTH 29 0
BBX 18 11 5 35
BITMAP
01E000
03F000
07F800
07F800
0FFC00
1F3E00
1E1E00
3C0F00
3C0F00
780780
F003C0
ENDCHAR
STARTCHAR tilde
ENCODING -1
SWIDTH 500 0
DWIDTH 29 0
BBX 19 8 5 37
BITMAP
1F00E0
3F80E0
7FC0E0
7FE1E0
F0FFC0
E07FC0
E03F80
E01F00
ENDCHAR
STARTCHAR breve
ENCODING -1
SWIDTH 500 0
DWIDTH 29 0
BBX 18 8 6 38
BITMAP
E001C0
E003C0
F003C0
7C0F80
7FFF80
3FFF00
1FFE00
07F800
ENDCHAR
STARTCHAR dotaccent
ENCODING -1
SWIDTH 500 0
DWIDTH 29 0
BBX 6 6 12 38
BITMAP
FC
FC
FC
FC
FC
FC
ENDCHAR
STARTCHAR ring
ENCODING -1
SWIDTH 500 0
DWIDTH 29 0
BBX 16 16 7 35
BITMAP
07E0
1FF8
3FFC
7C3E
700E
F00F
E007
E007
E007
E007
F00F
700E
7C3E
3FFC
1FF8
07E0
ENDCHAR
STARTCHAR hungarumlaut
ENCODING -1
SWIDTH 500 0
DWIDTH 29 0
BBX 20 11 7 35
BITMAP
07C1F0
0783E0
0F87C0
0F07C0
1E0F80
1E0F00
3C1F00
3C1E00
783E00
783C00
F07800
ENDCHAR
STARTCHAR ogonek
ENCODING -1
SWIDTH 500 0
DWIDTH 29 0
BBX 11 11 9 -11
BITMAP
1C00
3800
7800
7000
F000
F000
F000
F820
7FE0
7FE0
1FE0
ENDCHAR
STARTCHAR caron
ENCODING -1
SWIDTH 500 0
DWIDTH 29 0
BBX 18 11 5 35
BITMAP
F003C0
780780
3C0F00
3C0F00
1E1E00
1F3E00
0FFC00
07F800
07F800
03F000
01E000
ENDCHAR
STARTCHAR Lslash
ENCODING -1
SWIDTH 562 0
DWIDTH 33 0
BBX 32 42 0 0
BITMAP
03E00000
03E00000
03E00000
03E00000
03E00000
03E00000
03E00000
03E00000
03E00000
03E00000
03E00000
03E00000
03E03800
03E07800
03E1FC00
03E3F800
03E7E000
03FFC000
03FF8000
03FE0000
03FC0000
03F00000
07E00000
0FE00000
3FE00000
7FE00000
FFE00000
7BE00000
63E00000
03E00000
03E00000
03E00000
03E00000
03E00000
03E00000
03E00000
03E00000
03E00000
03FFFFFF
03FFFFFF
03FFFFFF
03FFFFFF
ENDCHAR
STARTCHAR lslash
ENCODING -1
SWIDTH 284 0
DWIDTH 16 0
BBX 17 44 0 0
BITMAP
03E000
03E000
03E000
03E000
03E000
03E000
03E000
03E000
03E000
03E000
03E000
03E000
03E000
03E000
03E000
03E700
03EF00
03FF80
03FE00
03FC00
03F000
07E000
1FE000
3FE000
FFE000
7FE000
73E000
03E000
03E000
03E000
03E000
03E000
03E000
03E000
03E000
03E000
03E000
03E000
03E000
03E000
03E000
03E000
03E000
03E000
ENDCHAR
STARTCHAR Scaron
ENCODING -1
SWIDTH 634 0
DWIDTH 37 0
BBX 30 56 4 -1
BITMAP
03C01E00
01E03C00
00F07800
0078F000
007DF000
003FE000
001FC000
001F8000
00000000
00000000
00000000
00000000
003FF800
01FFFF80
07FFFFE0
0FFFFFE0
1FE01FE0
3F0003E0
7E0000E0
7C000020
FC000000
F8000000
F8000000
F8000000
F8000000
F8000000
FC000000
FE000000
7F800000
7FF80000
3FFFC000
1FFFFC00
0FFFFF00
03FFFFC0
00FFFFE0
000FFFF0
00007FF0
00000FF8
000003F8
000001FC
000000FC
0000007C
0000007C
0000007C
0000007C
0000007C
0000007C
800000F8
C00000F8
F00001F8
FE0007F0
FFC01FE0
FFFFFFC0
7FFFFF80
0FFFFE00
00FFF000
ENDCHAR
STARTCHAR scaron
ENCODING -1
SWIDTH 520 0
DWIDTH 30 0
BBX 24 47 3 -1
BITMAP
1E0078
0F00F0
0781E0
0781E0
03C3C0
03E7C0
01FF80
00FF00
00FF00
007E00
003C00
000000
000000
00FFE0
07FFFC
1FFFFC
3FFFFC
7F807C
7E0004
FC0000
F80000
F80000
F80000
F80000
FC0000
FE0000
7F8000
7FF800
3FFF80
1FFFE0
07FFF8
007FFC
0007FE
0000FE
00003F
00003F
00001F
00001F
00001F
00001F
80003E
E0007E
FE01FC
FFFFF8
FFFFF0
3FFFE0
03FF00
ENDCHAR
STARTCHAR Zcaron
ENCODING -1
SWIDTH 685 0
DWIDTH 40 0
BBX 35 55 3 0
BITMAP
00F0078000
00780F0000
003C1E0000
001E3C0000
001F7C0000
000FF80000
0007F00000
0007E00000
0000000000
0000000000
0000000000
0000000000
0000000000
7FFFFFFFC0
7FFFFFFFC0
7FFFFFFFC0
7FFFFFFFC0
0000000FC0
0000001F80
0000003F00
0000007E00
000000FE00
000001FC00
000001F800
000003F000
000007E000
00000FC000
00001FC000
00003F8000
00003F0000
00007E0000
0000FC0000
0001FC0000
0003F80000
0007F00000
0007E00000
000FC00000
001F800000
003F800000
007F000000
00FE000000
00FC000000
01F8000000
03F0000000
07F0000000
0FE0000000
1FC0000000
1F80000000
3F00000000
7E00000000
FE00000000
FFFFFFFFE0
FFFFFFFFE0
FFFFFFFFE0
FFFFFFFFE0
ENDCHAR
STARTCHAR zcaron
ENCODING -1
SWIDTH 524 0
DWIDTH 30 0
BBX 25 46 3 0
BITMAP
1E007800
0F00F000
0781E000
0781E000
03C3C000
03E7C000
01FF8000
00FF0000
00FF0000
007E0000
003C0000
00000000
00000000
00000000
7FFFFF80
7FFFFF80
7FFFFF80
7FFFFF80
00001F80
00003F00
00007F00
0000FE00
0001FC00
0001F800
0003F000
0007E000
000FE000
001FC000
003F8000
003F0000
007E0000
00FE0000
01FC0000
03F80000
03F00000
07E00000
0FC00000
1FC00000
3F800000
7F000000
7E000000
FC000000
FFFFFF80
FFFFFF80
FFFFFF80
FFFFFF80
ENDCHAR
STARTCHAR minus
ENCODING -1
SWIDTH 837 0
DWIDTH 49 0
BBX 36 5 6 16
BITMAP
FFFFFFFFF0
FFFFFFFFF0
FFFFFFFFF0
FFFFFFFFF0
FFFFFFFFF0
ENDCHAR
STARTCHAR Gbreve
ENCODING -1
SWIDTH 774 0
DWIDTH 45 0
BBX 37 55 3 -1
BITMAP
001C003800
001E007800
000F81F000
000FFFF000
0007FFE000
0003FFC000
0000FF0000
0000000000
0000000000
0000000000
0000000000
0000FFE000
000FFFFE00
003FFFFF80
00FFFFFFE0
01FF003FF0
03F80007F0
07E00001F0
0FC0000070
1F80000030
1F00000010
3F00000000
3E00000000
7E00000000
7C00000000
7C00000000
7C00000000
F800000000
F800000000
F800000000
F800000000
F800000000
F800000000
F80001FFF8
F80001FFF8
F80001FFF8
F80001FFF8
F8000000F8
F8000000F8
7C000000F8
7C000000F8
7C000000F8
7E000000F8
3E000000F8
3F000000F8
1F000000F8
1F800000F8
0FC00000F8
07F00000F8
03F80003F8
01FF801FF8
00FFFFFFF0
003FFFFFC0
000FFFFE00
0000FFE000
ENDCHAR
STARTCHAR gbreve
ENCODING -1
SWIDTH 634 0
DWIDTH 37 0
BBX 28 58 3 -12
BITMAP
01C00380
01C00780
01E00780
00F81F00
00FFFF00
007FFE00
003FFC00
000FF000
00000000
00000000
00000000
00000000
00000000
007F8000
01FFE1F0
07FFF1F0
0FFFF9F0
0FE07DF0
1F801FF0
3F000FF0
3E0007F0
7E0007F0
7C0003F0
7C0003F0
FC0003F0
F80001F0
F80001F0
F80001F0
F80001F0
F80001F0
F80001F0
F80001F0
F80001F0
F80001F0
FC0003F0
7C0003F0
7C0003F0
7E0007F0
3E0007F0
3F000FF0
1F801FF0
0FE07DF0
0FFFF9F0
07FFF1F0
01FFE1F0
007F81F0
000001F0
000003F0
000003E0
000003E0
000007E0
00000FC0
08001FC0
0F007F80
0FFFFF00
0FFFFE00
0FFFF800
03FFE000
ENDCHAR
STARTCHAR Idotaccent
ENCODING -1
SWIDTH 294 0
DWIDTH 17 0
BBX 7 54 5 0
BITMAP
7E
7E
7E
7E
7E
7E
00
00
00
00
00
00
F8
F8
F8
F8
F8
F8
F8
F8
F8
F8
F8
F8
F8
F8
F8
F8
F8
F8
F8
F8
F8
F8
F8
F8
F8
F8
F8
F8
F8
F8
F8
F8
F8
F8
F8
F8
F8
F8
F8
F8
F8
F8
ENDCHAR
STARTCHAR Scedilla
ENCODING -1
SWIDTH 634 0
DWIDTH 37 0
BBX 30 54 4 -11
BITMAP
003FF800
01FFFF80
07FFFFE0
0FFFFFE0
1FE01FE0
3F0003E0
7E0000E0
7C000020
FC000000
F8000000
F8000000
F8000000
F8000000
F8000000
FC000000
FE000000
7F800000
7FF80000
3FFFC000
1FFFFC00
0FFFFF00
03FFFFC0
00FFFFE0
000FFFF0
00007FF0
00000FF8
000003F8
000001FC
000000FC
0000007C
0000007C
0000007C
0000007C
0000007C
0000007C
800000F8
C00000F8
F00001F8
FE0007F0
FFC01FE0
FFFFFFC0
7FFFFF80
0FFFFE00
00FFF000
0001C000
0001E000
0000E000
0000F000
0000F000
0000F000
0081F000
00FFE000
00FFE000
00FF8000
ENDCHAR
STARTCHAR scedilla
ENCODING -1
SWIDTH 520 0
DWIDTH 30 0
BBX 24 44 3 -11
BITMAP
00FFE0
07FFFC
1FFFFC
3FFFFC
7F807C
7E0004
FC0000
F80000
F80000
F80000
F80000
FC0000
FE0000
7F8000
7FF800
3FFF80
1FFFE0
07FFF8
007FFC
0007FE
0000FE
00003F
00003F
00001F
00001F
00001F
00001F
80003E
E0007E
FE01FC
FFFFF8
FFFFF0
3FFFE0
03FF00
000700
000780
000380
0003C0
0003C0
0003C0
0207C0
03FF80
03FF80
03FE00
ENDCHAR
STARTCHAR Cacute
ENCODING -1
SWIDTH 698 0
DWIDTH 41 0
BBX 34 55 3 -1
BITMAP
000003E000
000007C000
0000078000
00000F8000
00001F0000
00003E0000
00007C0000
0000000000
0000000000
0000000000
0000000000
0001FFC000
000FFFF800
003FFFFE00
00FFFFFF80
01FF007FC0
03F8000FC0
07E00003C0
0FC00001C0
1F800000C0
1F00000040
3F00000000
3E00000000
7E00000000
7C00000000
7C00000000
7C00000000
F800000000
F800000000
F800000000
F800000000
F800000000
F800000000
F800000000
F800000000
F800000000
F800000000
F800000000
F800000000
7C00000000
7C00000000
7C00000000
7E00000000
3E00000000
3F00000000
1F00000040
1F800000C0
0FC00001C0
07E00003C0
03F8000FC0
01FF007FC0
00FFFFFF80
003FFFFE00
000FFFF800
0001FFC000
ENDCHAR
STARTCHAR cacute
ENCODING -1
SWIDTH 549 0
DWIDTH 32 0
BBX 25 47 3 -1
BITMAP
00001F80
00003F00
00007E00
00007C00
0000F800
0001F000
0003E000
0003E000
0007C000
000F8000
001F0000
00000000
00000000
001FFC00
00FFFF80
01FFFF80
07FFFF80
0FF00F80
1FC00080
1F800000
3F000000
3E000000
7C000000
7C000000
7C000000
F8000000
F8000000
F8000000
F8000000
F8000000
F8000000
F8000000
F8000000
F8000000
F8000000
7C000000
7C000000
7C000000
3E000000
3F000000
1F800000
1FC00080
0FF00F80
07FFFF80
01FFFF80
00FFFF80
001FFC00
ENDCHAR
STARTCHAR Ccaron
ENCODING -1
SWIDTH 698 0
DWIDTH 41 0
BBX 34 56 3 -1
BITMAP
000F007800
000780F000
0003C1E000
0001E3C000
0001F7C000
0000FF8000
00007F0000
00007E0000
0000000000
0000000000
0000000000
0000000000
0001FFC000
000FFFF800
003FFFFE00
00FFFFFF80
01FF007FC0
03F8000FC0
07E00003C0
0FC00001C0
1F800000C0
1F00000040
3F00000000
3E00000000
7E00000000
7C00000000
7C00000000
7C00000000
F800000000
F800000000
F800000000
F800000000
F800000000
F800000000
F800000000
F800000000
F800000000
F800000000
F800000000
F800000000
7C00000000
7C00000000
7C00000000
7E00000000
3E00000000
3F00000000
1F00000040
1F800000C0
0FC00001C0
07E00003C0
03F8000FC0
01FF007FC0
00FFFFFF80
003FFFFE00
000FFFF800
0001FFC000
ENDCHAR
STARTCHAR ccaron
ENCODING -1
SWIDTH 549 0
DWIDTH 32 0
BBX 25 47 3 -1
BITMAP
03C00F00
01E01E00
00F03C00
00F03C00
00787800
007CF800
003FF000
001FE000
001FE000
000FC000
00078000
00000000
00000000
001FFC00
00FFFF80
01FFFF80
07FFFF80
0FF00F80
1FC00080
1F800000
3F000000
3E000000
7C000000
7C000000
7C000000
F8000000
F8000000
F8000000
F8000000
F8000000
F8000000
F8000000
F8000000
F8000000
F8000000
7C000000
7C000000
7C000000
3E000000
3F000000
1F800000
1FC00080
0FF00F80
07FFFF80
01FFFF80
00FFFF80
001FFC00
ENDCHAR
STARTCHAR dcroat
ENCODING -1
SWIDTH 634 0
DWIDTH 37 0
BBX 32 45 3 -1
BITMAP
000001F0
000001F0
000001F0
000001F0
0003FFFF
0003FFFF
0003FFFF
000001F0
000001F0
000001F0
000001F0
007F81F0
01FFE1F0
03FFF1F0
07FFF9F0
0FE07DF0
1F801FF0
3F000FF0
3E0007F0
7E0007F0
7C0003F0
7C0003F0
7C0003F0
F80001F0
F80001F0
F80001F0
F80001F0
F80001F0
F80001F0
F80001F0
F80001F0
F80001F0
F80001F0
7C0003F0
7C0003F0
7C0003F0
7E0007F0
3E0007F0
3F000FF0
1F801FF0
0FE07DF0
07FFF9F0
03FFF1F0
01FFE1F0
007F8000
ENDCHAR
STARTCHAR periodcentered
ENCODING -1
SWIDTH 317 0
DWIDTH 18 0
BBX 5 7 6 17
BITMAP
F8
F8
F8
F8
F8
F8
F8
ENDCHAR
STARTCHAR Euro
ENCODING -1
SWIDTH 636 0
DWIDTH 37 0
BBX 33 44 0 -1
BITMAP
00003FC000
0001FFF800
0007FFFE00
000FFFFF00
001FE03F80
003F000F80
007E000780
00FC000180
00F8000080
01F8000000
01F0000000
01F0000000
03E0000000
03E0000000
03E0000000
03E0000000
7FFFFFE000
7FFFFFC000
FFFFFFC000
07C0000000
07C0000000
07C0000000
07C0000000
07C0000000
07C0000000
7FFFFE0000
7FFFFC0000
FFFFFC0000
03E0000000
03E0000000
03E0000000
03E0000000
01F0000000
01F0000000
01F8000000
00F8000080
00FC000180
007E000780
003F800F80
001FE03F80
000FFFFF00
0007FFFE00
0001FFF800
00003FC000
ENDCHAR
STARTCHAR c6459
ENCODING -1
SWIDTH 500 0
DWIDTH 29 0
BBX 17 6 6 37
BITMAP
FC1F80
FC1F80
FC1F80
FC1F80
FC1F80
FC1F80
ENDCHAR
STARTCHAR c6460
ENCODING -1
SWIDTH 500 0
DWIDTH 29 0
BBX 10 7 11 36
BITMAP
07C0
0F80
0F00
1F00
3E00
7C00
F800
ENDCHAR
STARTCHAR c6461
ENCODING -1
SWIDTH 500 0
DWIDTH 29 0
BBX 19 7 5 37
BITMAP
1F00E0
3FC0E0
7FF1E0
7FFFC0
F1FFC0
E07F80
E01F00
ENDCHAR
STARTCHAR c6462
ENCODING -1
SWIDTH 500 0
DWIDTH 29 0
BBX 10 7 8 36
BITMAP
FC00
7E00
3E00
1F00
0F80
07C0
03C0
ENDCHAR
STARTCHAR c6463
ENCODING -1
SWIDTH 500 0
DWIDTH 29 0
BBX 17 8 6 36
BITMAP
03F000
07F000
0FF800
1F7C00
1E3C00
3C1E00
780F00
F00780
ENDCHAR
STARTCHAR c6466
ENCODING -1
SWIDTH 500 0
DWIDTH 29 0
BBX 17 8 6 36
BITMAP
F00780
780F00
3C1E00
1E3C00
1F7C00
0FF800
07F000
07E000
ENDCHAR
STARTCHAR c6467
ENCODING -1
SWIDTH 400 0
DWIDTH 23 0
BBX 20 24 2 19
BITMAP
001F00
003F00
007F00
007F00
00EF00
01EF00
03CF00
038F00
070F00
0F0F00
0E0F00
1C0F00
3C0F00
780F00
700F00
E00F00
FFFFF0
FFFFF0
FFFFF0
000F00
000F00
000F00
000F00
000F00
ENDCHAR
STARTCHAR c6468
ENCODING -1
SWIDTH 500 0
DWIDTH 29 0
BBX 18 7 6 36
BITMAP
E001C0
F003C0
7C0F80
7FFF80
3FFF00
1FFE00
07F800
ENDCHAR
STARTCHAR c6469
ENCODING -1
SWIDTH 500 0
DWIDTH 29 0
BBX 6 6 12 37
BITMAP
FC
FC
FC
FC
FC
FC
ENDCHAR
ENDFONT
